# Stone cluster, metres / Minecraft blocks at unit radius
o fragment_00
v -0.482929 -0.186469 -0.139754
v -0.371801 -0.272276 0.274139
v -0.308548 -0.175637 0.410789
v -0.215297 0.188796 0.461304
v -0.216381 0.335112 0.358331
v -0.327509 0.420919 -0.055562
v -0.390762 0.32428 -0.192212
v -0.484014 -0.040153 -0.242727
f 1 2 3 4 5 6 7 8
v 0.215297 -0.188796 -0.461304
v 0.308548 0.175637 -0.410789
v 0.371801 0.272276 -0.274139
v 0.482929 0.186469 0.139754
v 0.484014 0.040153 0.242727
v 0.390762 -0.32428 0.192212
v 0.327509 -0.420919 0.055562
v 0.216381 -0.335112 -0.358331
f 9 10 11 12 13 14 15 16
v -0.396753 -0.186785 -0.296555
v 0.065868 -0.285118 -0.441152
v 0.216381 -0.335112 -0.358331
v 0.327509 -0.420919 0.055562
v 0.241333 -0.420602 0.212363
v -0.221287 -0.322269 0.356961
v -0.371801 -0.272276 0.274139
v -0.482929 -0.186469 -0.139754
f 17 18 19 20 21 22 23 24
v -0.327509 0.420919 -0.055562
v -0.216381 0.335112 0.358331
v -0.065868 0.285118 0.441152
v 0.396753 0.186785 0.296555
v 0.482929 0.186469 0.139754
v 0.371801 0.272276 -0.274139
v 0.221287 0.322269 -0.356961
v -0.241333 0.420602 -0.212363
f 25 26 27 28 29 30 31 32
v -0.484014 -0.040153 -0.242727
v -0.390762 0.32428 -0.192212
v -0.241333 0.420602 -0.212363
v 0.221287 0.322269 -0.356961
v 0.308548 0.175637 -0.410789
v 0.215297 -0.188796 -0.461304
v 0.065868 -0.285118 -0.441152
v -0.396753 -0.186785 -0.296555
f 33 34 35 36 37 38 39 40
v -0.221287 -0.322269 0.356961
v 0.241333 -0.420602 0.212363
v 0.390762 -0.32428 0.192212
v 0.484014 0.040153 0.242727
v 0.396753 0.186785 0.296555
v -0.065868 0.285118 0.441152
v -0.215297 0.188796 0.461304
v -0.308548 -0.175637 0.410789
f 41 42 43 44 45 46 47 48
v -0.365669 -0.065308 -0.279717
v 0.096952 -0.163641 -0.424314
v 0.098037 -0.309957 -0.321341
v -0.364584 -0.211624 -0.176744
f 49 50 51 52
v -0.253456 -0.297431 0.237149
v 0.209165 -0.395764 0.092552
v 0.272417 -0.299125 0.229202
v -0.190203 -0.200792 0.373799
f 53 54 55 56
v -0.209165 0.395764 -0.092552
v 0.253456 0.297431 -0.237149
v 0.190203 0.200792 -0.373799
v -0.272417 0.299125 -0.229202
f 57 58 59 60
v -0.096952 0.163641 0.424314
v 0.365669 0.065308 0.279717
v 0.364584 0.211624 0.176744
v -0.098037 0.309957 0.321341
f 61 62 63 64
v -0.451845 -0.064991 -0.122916
v -0.358593 0.299441 -0.072401
v -0.272417 0.299125 -0.229202
v -0.365669 -0.065308 -0.279717
f 65 66 67 68
v 0.096952 -0.163641 -0.424314
v 0.190203 0.200792 -0.373799
v 0.340717 0.150798 -0.290978
v 0.247465 -0.213634 -0.341493
f 69 70 71 72
v -0.190203 -0.200792 0.373799
v -0.096952 0.163641 0.424314
v -0.247465 0.213634 0.341493
v -0.340717 -0.150798 0.290978
f 73 74 75 76
v 0.358593 -0.299441 0.072401
v 0.451845 0.064991 0.122916
v 0.365669 0.065308 0.279717
v 0.272417 -0.299125 0.229202
f 77 78 79 80
v -0.364584 -0.211624 -0.176744
v -0.253456 -0.297431 0.237149
v -0.340717 -0.150798 0.290978
v -0.451845 -0.064991 -0.122916
f 81 82 83 84
v -0.358593 0.299441 -0.072401
v -0.247465 0.213634 0.341493
v -0.098037 0.309957 0.321341
v -0.209165 0.395764 -0.092552
f 85 86 87 88
v 0.247465 -0.213634 -0.341493
v 0.358593 -0.299441 0.072401
v 0.209165 -0.395764 0.092552
v 0.098037 -0.309957 -0.321341
f 89 90 91 92
v 0.253456 0.297431 -0.237149
v 0.364584 0.211624 0.176744
v 0.451845 0.064991 0.122916
v 0.340717 0.150798 -0.290978
f 93 94 95 96
v -0.365669 -0.065308 -0.279717
v -0.364584 -0.211624 -0.176744
v -0.451845 -0.064991 -0.122916
f 97 98 99
v -0.340717 -0.150798 0.290978
v -0.253456 -0.297431 0.237149
v -0.190203 -0.200792 0.373799
f 100 101 102
v -0.358593 0.299441 -0.072401
v -0.209165 0.395764 -0.092552
v -0.272417 0.299125 -0.229202
f 103 104 105
v -0.096952 0.163641 0.424314
v -0.098037 0.309957 0.321341
v -0.247465 0.213634 0.341493
f 106 107 108
v 0.247465 -0.213634 -0.341493
v 0.098037 -0.309957 -0.321341
v 0.096952 -0.163641 -0.424314
f 109 110 111
v 0.272417 -0.299125 0.229202
v 0.209165 -0.395764 0.092552
v 0.358593 -0.299441 0.072401
f 112 113 114
v 0.190203 0.200792 -0.373799
v 0.253456 0.297431 -0.237149
v 0.340717 0.150798 -0.290978
f 115 116 117
v 0.451845 0.064991 0.122916
v 0.364584 0.211624 0.176744
v 0.365669 0.065308 0.279717
f 118 119 120
o fragment_01
v -0.393858 -0.246245 -0.094268
v -0.523725 -0.204481 0.197455
v -0.588567 -0.08823 0.27045
v -0.660924 0.255302 0.189057
v -0.639188 0.343709 0.067571
v -0.509321 0.301944 -0.224151
v -0.444478 0.185694 -0.297147
v -0.372122 -0.157838 -0.215753
f 121 122 123 124 125 126 127 128
v 0.124185 -0.006102 -0.016534
v 0.051829 0.33743 -0.097927
v -0.013013 0.453681 -0.024931
v -0.142881 0.495445 0.266791
v -0.164616 0.407038 0.388276
v -0.09226 0.063506 0.46967
v -0.027418 -0.052744 0.396674
v 0.102449 -0.094509 0.104952
f 129 130 131 132 133 134 135 136
v -0.25473 -0.230866 -0.153039
v 0.0499 -0.137731 -0.030759
v 0.102449 -0.094509 0.104952
v -0.027418 -0.052744 0.396674
v -0.166545 -0.068124 0.455445
v -0.471175 -0.161258 0.333165
v -0.523725 -0.204481 0.197455
v -0.393858 -0.246245 -0.094268
f 137 138 139 140 141 142 143 144
v -0.509321 0.301944 -0.224151
v -0.639188 0.343709 0.067571
v -0.586638 0.386931 0.203282
v -0.282008 0.480066 0.325562
v -0.142881 0.495445 0.266791
v -0.013013 0.453681 -0.024931
v -0.065563 0.410458 -0.160642
v -0.370193 0.317324 -0.282922
f 145 146 147 148 149 150 151 152
v -0.372122 -0.157838 -0.215753
v -0.444478 0.185694 -0.297147
v -0.370193 0.317324 -0.282922
v -0.065563 0.410458 -0.160642
v 0.051829 0.33743 -0.097927
v 0.124185 -0.006102 -0.016534
v 0.0499 -0.137731 -0.030759
v -0.25473 -0.230866 -0.153039
f 153 154 155 156 157 158 159 160
v -0.471175 -0.161258 0.333165
v -0.166545 -0.068124 0.455445
v -0.09226 0.063506 0.46967
v -0.164616 0.407038 0.388276
v -0.282008 0.480066 0.325562
v -0.586638 0.386931 0.203282
v -0.660924 0.255302 0.189057
v -0.588567 -0.08823 0.27045
f 161 162 163 164 165 166 167 168
v -0.276283 -0.128537 -0.177283
v 0.028347 -0.035403 -0.055004
v 0.006611 -0.12381 0.066482
v -0.298019 -0.216945 -0.055798
f 169 170 171 172
v -0.427886 -0.17518 0.235924
v -0.123256 -0.082045 0.358204
v -0.188098 0.034205 0.4312
v -0.492728 -0.05893 0.30892
f 173 174 175 176
v -0.413482 0.331245 -0.185681
v -0.108852 0.42438 -0.063401
v -0.04401 0.308129 -0.136397
v -0.34864 0.214995 -0.258677
f 177 178 179 180
v -0.565085 0.284603 0.227527
v -0.260455 0.377737 0.349806
v -0.238719 0.466144 0.228321
v -0.543349 0.37301 0.106041
f 181 182 183 184
v -0.415411 -0.143917 -0.118513
v -0.487768 0.199616 -0.199906
v -0.34864 0.214995 -0.258677
v -0.276283 -0.128537 -0.177283
f 185 186 187 188
v 0.028347 -0.035403 -0.055004
v -0.04401 0.308129 -0.136397
v 0.00854 0.351352 -0.000687
v 0.080896 0.00782 0.080707
f 189 190 191 192
v -0.492728 -0.05893 0.30892
v -0.565085 0.284603 0.227527
v -0.617635 0.24138 0.091816
v -0.545278 -0.102152 0.17321
f 193 194 195 196
v -0.048971 0.049584 0.372429
v -0.121327 0.393117 0.291036
v -0.260455 0.377737 0.349806
v -0.188098 0.034205 0.4312
f 197 198 199 200
v -0.298019 -0.216945 -0.055798
v -0.427886 -0.17518 0.235924
v -0.545278 -0.102152 0.17321
v -0.415411 -0.143917 -0.118513
f 201 202 203 204
v -0.487768 0.199616 -0.199906
v -0.617635 0.24138 0.091816
v -0.543349 0.37301 0.106041
v -0.413482 0.331245 -0.185681
f 205 206 207 208
v 0.080896 0.00782 0.080707
v -0.048971 0.049584 0.372429
v -0.123256 -0.082045 0.358204
v 0.006611 -0.12381 0.066482
f 209 210 211 212
v -0.108852 0.42438 -0.063401
v -0.238719 0.466144 0.228321
v -0.121327 0.393117 0.291036
v 0.00854 0.351352 -0.000687
f 213 214 215 216
v -0.276283 -0.128537 -0.177283
v -0.298019 -0.216945 -0.055798
v -0.415411 -0.143917 -0.118513
f 217 218 219
v -0.545278 -0.102152 0.17321
v -0.427886 -0.17518 0.235924
v -0.492728 -0.05893 0.30892
f 220 221 222
v -0.487768 0.199616 -0.199906
v -0.413482 0.331245 -0.185681
v -0.34864 0.214995 -0.258677
f 223 224 225
v -0.565085 0.284603 0.227527
v -0.543349 0.37301 0.106041
v -0.617635 0.24138 0.091816
f 226 227 228
v 0.080896 0.00782 0.080707
v 0.006611 -0.12381 0.066482
v 0.028347 -0.035403 -0.055004
f 229 230 231
v -0.188098 0.034205 0.4312
v -0.123256 -0.082045 0.358204
v -0.048971 0.049584 0.372429
f 232 233 234
v -0.04401 0.308129 -0.136397
v -0.108852 0.42438 -0.063401
v 0.00854 0.351352 -0.000687
f 235 236 237
v -0.121327 0.393117 0.291036
v -0.238719 0.466144 0.228321
v -0.260455 0.377737 0.349806
f 238 239 240
o fragment_02
v 0.077747 -0.412443 -0.337748
v 0.193285 -0.511679 0.018259
v 0.189168 -0.447901 0.149962
v 0.084159 -0.176981 0.259559
v 0.01827 -0.060146 0.200921
v -0.097268 0.03909 -0.155086
v -0.093151 -0.024688 -0.286789
v 0.011858 -0.295608 -0.396386
f 241 242 243 244 245 246 247 248
v 0.490918 -0.072219 -0.48959
v 0.385909 0.198701 -0.379992
v 0.381792 0.262479 -0.24829
v 0.497329 0.163243 0.107718
v 0.563219 0.046408 0.166356
v 0.668228 -0.224512 0.056758
v 0.672345 -0.28829 -0.074945
v 0.556807 -0.189054 -0.430952
f 249 250 251 252 253 254 255 256
v 0.139251 -0.342832 -0.450894
v 0.433531 -0.205608 -0.508147
v 0.556807 -0.189054 -0.430952
v 0.672345 -0.28829 -0.074945
v 0.610841 -0.3579 0.038201
v 0.316561 -0.495125 0.095454
v 0.193285 -0.511679 0.018259
v 0.077747 -0.412443 -0.337748
f 257 258 259 260 261 262 263 264
v -0.097268 0.03909 -0.155086
v 0.01827 -0.060146 0.200921
v 0.141546 -0.043592 0.278117
v 0.435826 0.093632 0.220863
v 0.497329 0.163243 0.107718
v 0.381792 0.262479 -0.24829
v 0.258515 0.245925 -0.325485
v -0.035764 0.1087 -0.268231
f 265 266 267 268 269 270 271 272
v 0.011858 -0.295608 -0.396386
v -0.093151 -0.024688 -0.286789
v -0.035764 0.1087 -0.268231
v 0.258515 0.245925 -0.325485
v 0.385909 0.198701 -0.379992
v 0.490918 -0.072219 -0.48959
v 0.433531 -0.205608 -0.508147
v 0.139251 -0.342832 -0.450894
f 273 274 275 276 277 278 279 280
v 0.316561 -0.495125 0.095454
v 0.610841 -0.3579 0.038201
v 0.668228 -0.224512 0.056758
v 0.563219 0.046408 0.166356
v 0.435826 0.093632 0.220863
v 0.141546 -0.043592 0.278117
v 0.084159 -0.176981 0.259559
v 0.189168 -0.447901 0.149962
f 281 282 283 284 285 286 287 288
v 0.104248 -0.252526 -0.414361
v 0.398528 -0.115301 -0.471615
v 0.464417 -0.232136 -0.412977
v 0.170137 -0.369361 -0.355723
f 289 290 291 292
v 0.285675 -0.468597 0.000284
v 0.579955 -0.331372 -0.05697
v 0.575838 -0.267594 0.074733
v 0.281558 -0.404819 0.131987
f 293 294 295 296
v -0.004878 0.082172 -0.173061
v 0.289402 0.219397 -0.230315
v 0.293518 0.155619 -0.362017
v -0.000761 0.018394 -0.304764
f 297 298 299 300
v 0.176549 -0.133899 0.241584
v 0.470829 0.003326 0.184331
v 0.404939 0.120161 0.125693
v 0.11066 -0.017064 0.182946
f 301 302 303 304
v 0.042744 -0.322136 -0.301216
v -0.062265 -0.051217 -0.191619
v -0.000761 0.018394 -0.304764
v 0.104248 -0.252526 -0.414361
f 305 306 307 308
v 0.398528 -0.115301 -0.471615
v 0.293518 0.155619 -0.362017
v 0.416795 0.172172 -0.284822
v 0.521804 -0.098747 -0.39442
f 309 310 311 312
v 0.281558 -0.404819 0.131987
v 0.176549 -0.133899 0.241584
v 0.053273 -0.150453 0.164389
v 0.158282 -0.421372 0.054792
f 313 314 315 316
v 0.637342 -0.197983 -0.038412
v 0.532332 0.072937 0.071185
v 0.470829 0.003326 0.184331
v 0.575838 -0.267594 0.074733
f 317 318 319 320
v 0.170137 -0.369361 -0.355723
v 0.285675 -0.468597 0.000284
v 0.158282 -0.421372 0.054792
v 0.042744 -0.322136 -0.301216
f 321 322 323 324
v -0.062265 -0.051217 -0.191619
v 0.053273 -0.150453 0.164389
v 0.11066 -0.017064 0.182946
v -0.004878 0.082172 -0.173061
f 325 326 327 328
v 0.521804 -0.098747 -0.39442
v 0.637342 -0.197983 -0.038412
v 0.579955 -0.331372 -0.05697
v 0.464417 -0.232136 -0.412977
f 329 330 331 332
v 0.289402 0.219397 -0.230315
v 0.404939 0.120161 0.125693
v 0.532332 0.072937 0.071185
v 0.416795 0.172172 -0.284822
f 333 334 335 336
v 0.104248 -0.252526 -0.414361
v 0.170137 -0.369361 -0.355723
v 0.042744 -0.322136 -0.301216
f 337 338 339
v 0.158282 -0.421372 0.054792
v 0.285675 -0.468597 0.000284
v 0.281558 -0.404819 0.131987
f 340 341 342
v -0.062265 -0.051217 -0.191619
v -0.004878 0.082172 -0.173061
v -0.000761 0.018394 -0.304764
f 343 344 345
v 0.176549 -0.133899 0.241584
v 0.11066 -0.017064 0.182946
v 0.053273 -0.150453 0.164389
f 346 347 348
v 0.521804 -0.098747 -0.39442
v 0.464417 -0.232136 -0.412977
v 0.398528 -0.115301 -0.471615
f 349 350 351
v 0.575838 -0.267594 0.074733
v 0.579955 -0.331372 -0.05697
v 0.637342 -0.197983 -0.038412
f 352 353 354
v 0.293518 0.155619 -0.362017
v 0.289402 0.219397 -0.230315
v 0.416795 0.172172 -0.284822
f 355 356 357
v 0.532332 0.072937 0.071185
v 0.404939 0.120161 0.125693
v 0.470829 0.003326 0.184331
f 358 359 360
o fragment_03
v -0.234923 0.101235 0.197982
v -0.091557 0.144705 0.474366
v -0.043799 0.247634 0.538065
v -0.02641 0.51825 0.486482
v -0.062575 0.595732 0.388395
v -0.205942 0.552262 0.112011
v -0.253699 0.449334 0.048312
v -0.271088 0.178718 0.099895
f 361 362 363 364 365 366 367 368
v 0.256441 0.095165 -0.160605
v 0.27383 0.365782 -0.212188
v 0.321587 0.46871 -0.14849
v 0.464954 0.51218 0.127894
v 0.501119 0.434697 0.225982
v 0.48373 0.164081 0.277565
v 0.435972 0.061153 0.213866
v 0.292606 0.017683 -0.062518
f 369 370 371 372 373 374 375 376
v -0.195203 0.075575 0.076754
v 0.168963 0.017897 -0.103075
v 0.292606 0.017683 -0.062518
v 0.435972 0.061153 0.213866
v 0.396251 0.086813 0.335094
v 0.032086 0.144491 0.514924
v -0.091557 0.144705 0.474366
v -0.234923 0.101235 0.197982
f 377 378 379 380 381 382 383 384
v -0.205942 0.552262 0.112011
v -0.062575 0.595732 0.388395
v 0.061068 0.595518 0.428952
v 0.425233 0.53784 0.249123
v 0.464954 0.51218 0.127894
v 0.321587 0.46871 -0.14849
v 0.197944 0.468924 -0.189047
v -0.166221 0.526602 -0.009218
f 385 386 387 388 389 390 391 392
v -0.271088 0.178718 0.099895
v -0.253699 0.449334 0.048312
v -0.166221 0.526602 -0.009218
v 0.197944 0.468924 -0.189047
v 0.27383 0.365782 -0.212188
v 0.256441 0.095165 -0.160605
v 0.168963 0.017897 -0.103075
v -0.195203 0.075575 0.076754
f 393 394 395 396 397 398 399 400
v 0.032086 0.144491 0.514924
v 0.396251 0.086813 0.335094
v 0.48373 0.164081 0.277565
v 0.501119 0.434697 0.225982
v 0.425233 0.53784 0.249123
v 0.061068 0.595518 0.428952
v -0.02641 0.51825 0.486482
v -0.043799 0.247634 0.538065
f 401 402 403 404 405 406 407 408
v -0.189406 0.165781 0.05956
v 0.174759 0.108103 -0.12027
v 0.210924 0.03062 -0.022182
v -0.153242 0.088298 0.157647
f 409 410 411 412
v -0.009875 0.131768 0.434031
v 0.35429 0.07409 0.254202
v 0.402048 0.177018 0.3179
v 0.037883 0.234696 0.497729
f 413 414 415 416
v -0.12426 0.539325 0.071675
v 0.239905 0.481647 -0.108154
v 0.192148 0.378719 -0.171853
v -0.172017 0.436397 0.007977
f 417 418 419 420
v 0.055272 0.505313 0.446146
v 0.419437 0.447635 0.266317
v 0.383272 0.525117 0.16823
v 0.019107 0.582795 0.348059
f 421 422 423 424
v -0.229127 0.191441 0.180788
v -0.211738 0.462057 0.129205
v -0.172017 0.436397 0.007977
v -0.189406 0.165781 0.05956
f 425 426 427 428
v 0.174759 0.108103 -0.12027
v 0.192148 0.378719 -0.171853
v 0.315791 0.378504 -0.131295
v 0.298402 0.107888 -0.079712
f 429 430 431 432
v 0.037883 0.234696 0.497729
v 0.055272 0.505313 0.446146
v -0.068371 0.505527 0.405589
v -0.08576 0.234911 0.457172
f 433 434 435 436
v 0.441769 0.151358 0.196672
v 0.459158 0.421974 0.145089
v 0.419437 0.447635 0.266317
v 0.402048 0.177018 0.3179
f 437 438 439 440
v -0.153242 0.088298 0.157647
v -0.009875 0.131768 0.434031
v -0.08576 0.234911 0.457172
v -0.229127 0.191441 0.180788
f 441 442 443 444
v -0.211738 0.462057 0.129205
v -0.068371 0.505527 0.405589
v 0.019107 0.582795 0.348059
v -0.12426 0.539325 0.071675
f 445 446 447 448
v 0.298402 0.107888 -0.079712
v 0.441769 0.151358 0.196672
v 0.35429 0.07409 0.254202
v 0.210924 0.03062 -0.022182
f 449 450 451 452
v 0.239905 0.481647 -0.108154
v 0.383272 0.525117 0.16823
v 0.459158 0.421974 0.145089
v 0.315791 0.378504 -0.131295
f 453 454 455 456
v -0.189406 0.165781 0.05956
v -0.153242 0.088298 0.157647
v -0.229127 0.191441 0.180788
f 457 458 459
v -0.08576 0.234911 0.457172
v -0.009875 0.131768 0.434031
v 0.037883 0.234696 0.497729
f 460 461 462
v -0.211738 0.462057 0.129205
v -0.12426 0.539325 0.071675
v -0.172017 0.436397 0.007977
f 463 464 465
v 0.055272 0.505313 0.446146
v 0.019107 0.582795 0.348059
v -0.068371 0.505527 0.405589
f 466 467 468
v 0.298402 0.107888 -0.079712
v 0.210924 0.03062 -0.022182
v 0.174759 0.108103 -0.12027
f 469 470 471
v 0.402048 0.177018 0.3179
v 0.35429 0.07409 0.254202
v 0.441769 0.151358 0.196672
f 472 473 474
v 0.192148 0.378719 -0.171853
v 0.239905 0.481647 -0.108154
v 0.315791 0.378504 -0.131295
f 475 476 477
v 0.459158 0.421974 0.145089
v 0.383272 0.525117 0.16823
v 0.419437 0.447635 0.266317
f 478 479 480
o fragment_04
v -0.484026 -0.39563 -0.438254
v -0.564795 -0.456119 -0.088296
v -0.551172 -0.385766 0.026759
v -0.446538 -0.126951 0.095644
v -0.390405 -0.024762 0.026512
v -0.309635 0.035728 -0.323446
v -0.323258 -0.034626 -0.438501
v -0.427893 -0.29344 -0.507386
f 481 482 483 484 485 486 487 488
v 0.005646 -0.486464 -0.44069
v 0.11028 -0.227649 -0.371805
v 0.123903 -0.157296 -0.25675
v 0.043134 -0.217785 0.093208
v -0.013 -0.319975 0.16234
v -0.117634 -0.578789 0.093455
v -0.131257 -0.649143 -0.0216
v -0.050487 -0.588653 -0.371558
f 489 490 491 492 493 494 495 496
v -0.376063 -0.418316 -0.517008
v -0.11594 -0.53413 -0.476991
v -0.050487 -0.588653 -0.371558
v -0.131257 -0.649143 -0.0216
v -0.23922 -0.626456 0.057154
v -0.499343 -0.510642 0.017137
v -0.564795 -0.456119 -0.088296
v -0.484026 -0.39563 -0.438254
f 497 498 499 500 501 502 503 504
v -0.309635 0.035728 -0.323446
v -0.390405 -0.024762 0.026512
v -0.324952 -0.079285 0.131945
v -0.064829 -0.195099 0.171962
v 0.043134 -0.217785 0.093208
v 0.123903 -0.157296 -0.25675
v 0.05845 -0.102773 -0.362183
v -0.201673 0.013041 -0.4022
f 505 506 507 508 509 510 511 512
v -0.427893 -0.29344 -0.507386
v -0.323258 -0.034626 -0.438501
v -0.201673 0.013041 -0.4022
v 0.05845 -0.102773 -0.362183
v 0.11028 -0.227649 -0.371805
v 0.005646 -0.486464 -0.44069
v -0.11594 -0.53413 -0.476991
v -0.376063 -0.418316 -0.517008
f 513 514 515 516 517 518 519 520
v -0.499343 -0.510642 0.017137
v -0.23922 -0.626456 0.057154
v -0.117634 -0.578789 0.093455
v -0.013 -0.319975 0.16234
v -0.064829 -0.195099 0.171962
v -0.324952 -0.079285 0.131945
v -0.446538 -0.126951 0.095644
v -0.551172 -0.385766 0.026759
f 521 522 523 524 525 526 527 528
v -0.341185 -0.332045 -0.494047
v -0.081062 -0.447859 -0.454029
v -0.137195 -0.550049 -0.384897
v -0.397318 -0.434234 -0.424914
f 529 530 531 532
v -0.478087 -0.494724 -0.074957
v -0.217964 -0.610538 -0.03494
v -0.204342 -0.540185 0.080116
v -0.464464 -0.424371 0.040098
f 533 534 535 536
v -0.222928 -0.002877 -0.310106
v 0.037195 -0.118691 -0.270089
v 0.023572 -0.189045 -0.385144
v -0.236551 -0.07323 -0.425162
f 537 538 539 540
v -0.35983 -0.165556 0.108983
v -0.099707 -0.28137 0.149001
v -0.043574 -0.179181 0.079868
v -0.303697 -0.063367 0.039851
f 541 542 543 544
v -0.449148 -0.309358 -0.415292
v -0.344513 -0.050544 -0.346407
v -0.236551 -0.07323 -0.425162
v -0.341185 -0.332045 -0.494047
f 545 546 547 548
v -0.081062 -0.447859 -0.454029
v 0.023572 -0.189045 -0.385144
v 0.089025 -0.243568 -0.279711
v -0.015609 -0.502382 -0.348596
f 549 550 551 552
v -0.464464 -0.424371 0.040098
v -0.35983 -0.165556 0.108983
v -0.425283 -0.111033 0.00355
v -0.529917 -0.369848 -0.065335
f 553 554 555 556
v -0.096379 -0.562871 0.001361
v 0.008255 -0.304057 0.070246
v -0.099707 -0.28137 0.149001
v -0.204342 -0.540185 0.080116
f 557 558 559 560
v -0.397318 -0.434234 -0.424914
v -0.478087 -0.494724 -0.074957
v -0.529917 -0.369848 -0.065335
v -0.449148 -0.309358 -0.415292
f 561 562 563 564
v -0.344513 -0.050544 -0.346407
v -0.425283 -0.111033 0.00355
v -0.303697 -0.063367 0.039851
v -0.222928 -0.002877 -0.310106
f 565 566 567 568
v -0.015609 -0.502382 -0.348596
v -0.096379 -0.562871 0.001361
v -0.217964 -0.610538 -0.03494
v -0.137195 -0.550049 -0.384897
f 569 570 571 572
v 0.037195 -0.118691 -0.270089
v -0.043574 -0.179181 0.079868
v 0.008255 -0.304057 0.070246
v 0.089025 -0.243568 -0.279711
f 573 574 575 576
v -0.341185 -0.332045 -0.494047
v -0.397318 -0.434234 -0.424914
v -0.449148 -0.309358 -0.415292
f 577 578 579
v -0.529917 -0.369848 -0.065335
v -0.478087 -0.494724 -0.074957
v -0.464464 -0.424371 0.040098
f 580 581 582
v -0.344513 -0.050544 -0.346407
v -0.222928 -0.002877 -0.310106
v -0.236551 -0.07323 -0.425162
f 583 584 585
v -0.35983 -0.165556 0.108983
v -0.303697 -0.063367 0.039851
v -0.425283 -0.111033 0.00355
f 586 587 588
v -0.015609 -0.502382 -0.348596
v -0.137195 -0.550049 -0.384897
v -0.081062 -0.447859 -0.454029
f 589 590 591
v -0.204342 -0.540185 0.080116
v -0.217964 -0.610538 -0.03494
v -0.096379 -0.562871 0.001361
f 592 593 594
v 0.023572 -0.189045 -0.385144
v 0.037195 -0.118691 -0.270089
v 0.089025 -0.243568 -0.279711
f 595 596 597
v 0.008255 -0.304057 0.070246
v -0.043574 -0.179181 0.079868
v -0.099707 -0.28137 0.149001
f 598 599 600
o fragment_05
v 0.226976 0.00292 -0.570208
v 0.18222 -0.155191 -0.311235
v 0.136378 -0.125102 -0.187274
v 0.03444 0.129294 -0.049576
v 0.016571 0.258202 -0.087474
v 0.061327 0.416313 -0.346448
v 0.107169 0.386224 -0.470408
v 0.209107 0.131828 -0.608107
f 601 602 603 604 605 606 607 608
v 0.655652 0.234921 -0.467993
v 0.553714 0.489317 -0.330295
v 0.507872 0.519406 -0.206334
v 0.463116 0.361295 0.052639
v 0.480985 0.232387 0.090538
v 0.582923 -0.022009 -0.047161
v 0.628765 -0.052098 -0.171121
v 0.673521 0.106013 -0.430095
f 609 610 611 612 613 614 615 616
v 0.330272 0.072948 -0.623115
v 0.598198 0.134804 -0.539047
v 0.673521 0.106013 -0.430095
v 0.628765 -0.052098 -0.171121
v 0.52547 -0.122126 -0.118215
v 0.257543 -0.183982 -0.202283
v 0.18222 -0.155191 -0.311235
v 0.226976 0.00292 -0.570208
f 617 618 619 620 621 622 623 624
v 0.061327 0.416313 -0.346448
v 0.016571 0.258202 -0.087474
v 0.091894 0.229411 0.021478
v 0.35982 0.291267 0.105546
v 0.463116 0.361295 0.052639
v 0.507872 0.519406 -0.206334
v 0.432549 0.548197 -0.315286
v 0.164622 0.486341 -0.399354
f 625 626 627 628 629 630 631 632
v 0.209107 0.131828 -0.608107
v 0.107169 0.386224 -0.470408
v 0.164622 0.486341 -0.399354
v 0.432549 0.548197 -0.315286
v 0.553714 0.489317 -0.330295
v 0.655652 0.234921 -0.467993
v 0.598198 0.134804 -0.539047
v 0.330272 0.072948 -0.623115
f 633 634 635 636 637 638 639 640
v 0.257543 -0.183982 -0.202283
v 0.52547 -0.122126 -0.118215
v 0.582923 -0.022009 -0.047161
v 0.480985 0.232387 0.090538
v 0.35982 0.291267 0.105546
v 0.091894 0.229411 0.021478
v 0.03444 0.129294 -0.049576
v 0.136378 -0.125102 -0.187274
f 641 642 643 644 645 646 647 648
v 0.298416 0.152447 -0.580084
v 0.566343 0.214303 -0.496016
v 0.584212 0.085394 -0.458118
v 0.316285 0.023539 -0.542186
f 649 650 651 652
v 0.271529 -0.134572 -0.283212
v 0.539456 -0.072716 -0.199144
v 0.493614 -0.042627 -0.075184
v 0.225687 -0.104483 -0.159252
f 653 654 655 656
v 0.150636 0.436932 -0.318425
v 0.418563 0.498787 -0.234357
v 0.464405 0.468698 -0.358317
v 0.196478 0.406843 -0.442385
f 657 658 659 660
v 0.123749 0.149913 -0.021553
v 0.391676 0.211768 0.062515
v 0.373807 0.340677 0.024617
v 0.10588 0.278821 -0.059451
f 661 662 663 664
v 0.195121 0.082419 -0.527177
v 0.093183 0.336814 -0.389479
v 0.196478 0.406843 -0.442385
v 0.298416 0.152447 -0.580084
f 665 666 667 668
v 0.566343 0.214303 -0.496016
v 0.464405 0.468698 -0.358317
v 0.539727 0.439907 -0.249365
v 0.641665 0.185512 -0.387064
f 669 670 671 672
v 0.225687 -0.104483 -0.159252
v 0.123749 0.149913 -0.021553
v 0.048427 0.178704 -0.130505
v 0.150365 -0.075692 -0.268204
f 673 674 675 676
v 0.596909 0.027401 -0.12809
v 0.494971 0.281797 0.009608
v 0.391676 0.211768 0.062515
v 0.493614 -0.042627 -0.075184
f 677 678 679 680
v 0.316285 0.023539 -0.542186
v 0.271529 -0.134572 -0.283212
v 0.150365 -0.075692 -0.268204
v 0.195121 0.082419 -0.527177
f 681 682 683 684
v 0.093183 0.336814 -0.389479
v 0.048427 0.178704 -0.130505
v 0.10588 0.278821 -0.059451
v 0.150636 0.436932 -0.318425
f 685 686 687 688
v 0.641665 0.185512 -0.387064
v 0.596909 0.027401 -0.12809
v 0.539456 -0.072716 -0.199144
v 0.584212 0.085394 -0.458118
f 689 690 691 692
v 0.418563 0.498787 -0.234357
v 0.373807 0.340677 0.024617
v 0.494971 0.281797 0.009608
v 0.539727 0.439907 -0.249365
f 693 694 695 696
v 0.298416 0.152447 -0.580084
v 0.316285 0.023539 -0.542186
v 0.195121 0.082419 -0.527177
f 697 698 699
v 0.150365 -0.075692 -0.268204
v 0.271529 -0.134572 -0.283212
v 0.225687 -0.104483 -0.159252
f 700 701 702
v 0.093183 0.336814 -0.389479
v 0.150636 0.436932 -0.318425
v 0.196478 0.406843 -0.442385
f 703 704 705
v 0.123749 0.149913 -0.021553
v 0.10588 0.278821 -0.059451
v 0.048427 0.178704 -0.130505
f 706 707 708
v 0.641665 0.185512 -0.387064
v 0.584212 0.085394 -0.458118
v 0.566343 0.214303 -0.496016
f 709 710 711
v 0.493614 -0.042627 -0.075184
v 0.539456 -0.072716 -0.199144
v 0.596909 0.027401 -0.12809
f 712 713 714
v 0.464405 0.468698 -0.358317
v 0.418563 0.498787 -0.234357
v 0.539727 0.439907 -0.249365
f 715 716 717
v 0.494971 0.281797 0.009608
v 0.373807 0.340677 0.024617
v 0.391676 0.211768 0.062515
f 718 719 720
o fragment_06
v -0.529277 -0.059863 -0.225571
v -0.534837 0.051928 0.022555
v -0.568665 0.157406 0.066804
v -0.664982 0.369924 -0.031102
v -0.695365 0.406123 -0.140622
v -0.689805 0.294333 -0.388747
v -0.655977 0.188854 -0.432996
v -0.55966 -0.023663 -0.33509
f 721 722 723 724 725 726 727 728
v -0.063449 0.166815 -0.40979
v -0.159765 0.379332 -0.507696
v -0.193593 0.48481 -0.463447
v -0.199153 0.596601 -0.215321
v -0.16877 0.560402 -0.105802
v -0.072454 0.347884 -0.007896
v -0.038625 0.242406 -0.052145
v -0.033066 0.130615 -0.30027
f 729 730 731 732 733 734 735 736
v -0.449579 -0.06457 -0.314193
v -0.109319 0.066043 -0.365416
v -0.033066 0.130615 -0.30027
v -0.038625 0.242406 -0.052145
v -0.118324 0.247113 0.036478
v -0.458584 0.116499 0.0877
v -0.534837 0.051928 0.022555
v -0.529277 -0.059863 -0.225571
f 737 738 739 740 741 742 743 744
v -0.689805 0.294333 -0.388747
v -0.695365 0.406123 -0.140622
v -0.619111 0.470695 -0.075476
v -0.278852 0.601308 -0.126699
v -0.199153 0.596601 -0.215321
v -0.193593 0.48481 -0.463447
v -0.269847 0.420239 -0.528592
v -0.610106 0.289625 -0.47737
f 745 746 747 748 749 750 751 752
v -0.55966 -0.023663 -0.33509
v -0.655977 0.188854 -0.432996
v -0.610106 0.289625 -0.47737
v -0.269847 0.420239 -0.528592
v -0.159765 0.379332 -0.507696
v -0.063449 0.166815 -0.40979
v -0.109319 0.066043 -0.365416
v -0.449579 -0.06457 -0.314193
f 753 754 755 756 757 758 759 760
v -0.458584 0.116499 0.0877
v -0.118324 0.247113 0.036478
v -0.072454 0.347884 -0.007896
v -0.16877 0.560402 -0.105802
v -0.278852 0.601308 -0.126699
v -0.619111 0.470695 -0.075476
v -0.664982 0.369924 -0.031102
v -0.568665 0.157406 0.066804
f 761 762 763 764 765 766 767 768
v -0.481684 0.006269 -0.346829
v -0.141425 0.136882 -0.398051
v -0.111042 0.100683 -0.288532
v -0.451301 -0.029931 -0.237309
f 769 770 771 772
v -0.456861 0.08186 0.010816
v -0.116602 0.212473 -0.040406
v -0.15043 0.317952 0.003843
v -0.490689 0.187339 0.055065
f 773 774 775 776
v -0.611829 0.324265 -0.400486
v -0.271569 0.454878 -0.451708
v -0.237741 0.3494 -0.495957
v -0.578001 0.218786 -0.444735
f 777 778 779 780
v -0.587006 0.399856 -0.042841
v -0.246746 0.530469 -0.094063
v -0.277129 0.566669 -0.203583
v -0.617389 0.436056 -0.15236
f 781 782 783 784
v -0.561383 0.010976 -0.258206
v -0.657699 0.223493 -0.356112
v -0.578001 0.218786 -0.444735
v -0.481684 0.006269 -0.346829
f 785 786 787 788
v -0.141425 0.136882 -0.398051
v -0.237741 0.3494 -0.495957
v -0.161488 0.413971 -0.430812
v -0.065171 0.201454 -0.332906
f 789 790 791 792
v -0.490689 0.187339 0.055065
v -0.587006 0.399856 -0.042841
v -0.663259 0.335284 -0.107986
v -0.566943 0.122767 -0.01008
f 793 794 795 796
v -0.070731 0.313245 -0.08478
v -0.167047 0.525762 -0.182686
v -0.246746 0.530469 -0.094063
v -0.15043 0.317952 0.003843
f 797 798 799 800
v -0.451301 -0.029931 -0.237309
v -0.456861 0.08186 0.010816
v -0.566943 0.122767 -0.01008
v -0.561383 0.010976 -0.258206
f 801 802 803 804
v -0.657699 0.223493 -0.356112
v -0.663259 0.335284 -0.107986
v -0.617389 0.436056 -0.15236
v -0.611829 0.324265 -0.400486
f 805 806 807 808
v -0.065171 0.201454 -0.332906
v -0.070731 0.313245 -0.08478
v -0.116602 0.212473 -0.040406
v -0.111042 0.100683 -0.288532
f 809 810 811 812
v -0.271569 0.454878 -0.451708
v -0.277129 0.566669 -0.203583
v -0.167047 0.525762 -0.182686
v -0.161488 0.413971 -0.430812
f 813 814 815 816
v -0.481684 0.006269 -0.346829
v -0.451301 -0.029931 -0.237309
v -0.561383 0.010976 -0.258206
f 817 818 819
v -0.566943 0.122767 -0.01008
v -0.456861 0.08186 0.010816
v -0.490689 0.187339 0.055065
f 820 821 822
v -0.657699 0.223493 -0.356112
v -0.611829 0.324265 -0.400486
v -0.578001 0.218786 -0.444735
f 823 824 825
v -0.587006 0.399856 -0.042841
v -0.617389 0.436056 -0.15236
v -0.663259 0.335284 -0.107986
f 826 827 828
v -0.065171 0.201454 -0.332906
v -0.111042 0.100683 -0.288532
v -0.141425 0.136882 -0.398051
f 829 830 831
v -0.15043 0.317952 0.003843
v -0.116602 0.212473 -0.040406
v -0.070731 0.313245 -0.08478
f 832 833 834
v -0.237741 0.3494 -0.495957
v -0.271569 0.454878 -0.451708
v -0.161488 0.413971 -0.430812
f 835 836 837
v -0.167047 0.525762 -0.182686
v -0.277129 0.566669 -0.203583
v -0.246746 0.530469 -0.094063
f 838 839 840
o fragment_07
v -0.305802 -0.403644 0.41449
v -0.209504 -0.463059 0.601444
v -0.160217 -0.413328 0.677008
v -0.081518 -0.094927 0.73766
v -0.09643 -0.005586 0.688589
v -0.192728 0.053829 0.501636
v -0.242015 0.004098 0.426072
v -0.320714 -0.314303 0.365419
f 841 842 843 844 845 846 847 848
v 0.177364 -0.384304 0.086616
v 0.256064 -0.065902 0.147269
v 0.30535 -0.016171 0.222833
v 0.401648 -0.075586 0.409786
v 0.41656 -0.164927 0.458858
v 0.337861 -0.483329 0.398205
v 0.288574 -0.53306 0.322641
v 0.192276 -0.473645 0.135688
f 849 850 851 852 853 854 855 856
v -0.274811 -0.392706 0.316858
v 0.097087 -0.444973 0.108685
v 0.192276 -0.473645 0.135688
v 0.288574 -0.53306 0.322641
v 0.257584 -0.543998 0.420274
v -0.114315 -0.491731 0.628446
v -0.209504 -0.463059 0.601444
v -0.305802 -0.403644 0.41449
f 857 858 859 860 861 862 863 864
v -0.192728 0.053829 0.501636
v -0.09643 -0.005586 0.688589
v -0.001241 -0.034258 0.715592
v 0.370658 -0.086525 0.507419
v 0.401648 -0.075586 0.409786
v 0.30535 -0.016171 0.222833
v 0.210161 0.012501 0.19583
v -0.161738 0.064768 0.404003
f 865 866 867 868 869 870 871 872
v -0.320714 -0.314303 0.365419
v -0.242015 0.004098 0.426072
v -0.161738 0.064768 0.404003
v 0.210161 0.012501 0.19583
v 0.256064 -0.065902 0.147269
v 0.177364 -0.384304 0.086616
v 0.097087 -0.444973 0.108685
v -0.274811 -0.392706 0.316858
f 873 874 875 876 877 878 879 880
v -0.114315 -0.491731 0.628446
v 0.257584 -0.543998 0.420274
v 0.337861 -0.483329 0.398205
v 0.41656 -0.164927 0.458858
v 0.370658 -0.086525 0.507419
v -0.001241 -0.034258 0.715592
v -0.081518 -0.094927 0.73766
v -0.160217 -0.413328 0.677008
f 881 882 883 884 885 886 887 888
v -0.257624 -0.32317 0.330104
v 0.114274 -0.375437 0.121931
v 0.129186 -0.464778 0.171003
v -0.242712 -0.412511 0.379175
f 889 890 891 892
v -0.146414 -0.471926 0.566129
v 0.225485 -0.524193 0.357956
v 0.274771 -0.474462 0.43352
v -0.097128 -0.422195 0.641693
f 893 894 895 896
v -0.129638 0.044962 0.466321
v 0.24226 -0.007304 0.258148
v 0.192974 -0.057035 0.182584
v -0.178925 -0.004768 0.390757
f 897 898 899 900
v -0.018428 -0.103794 0.702345
v 0.35347 -0.156061 0.494173
v 0.338558 -0.06672 0.445101
v -0.03334 -0.014453 0.653274
f 901 902 903 904
v -0.288615 -0.334108 0.427737
v -0.209916 -0.015707 0.488389
v -0.178925 -0.004768 0.390757
v -0.257624 -0.32317 0.330104
f 905 906 907 908
v 0.114274 -0.375437 0.121931
v 0.192974 -0.057035 0.182584
v 0.288163 -0.085707 0.209587
v 0.209464 -0.404109 0.148934
f 909 910 911 912
v -0.097128 -0.422195 0.641693
v -0.018428 -0.103794 0.702345
v -0.113618 -0.075122 0.675343
v -0.192317 -0.393523 0.61469
f 913 914 915 916
v 0.305762 -0.463524 0.335887
v 0.384461 -0.145122 0.39654
v 0.35347 -0.156061 0.494173
v 0.274771 -0.474462 0.43352
f 917 918 919 920
v -0.242712 -0.412511 0.379175
v -0.146414 -0.471926 0.566129
v -0.192317 -0.393523 0.61469
v -0.288615 -0.334108 0.427737
f 921 922 923 924
v -0.209916 -0.015707 0.488389
v -0.113618 -0.075122 0.675343
v -0.03334 -0.014453 0.653274
v -0.129638 0.044962 0.466321
f 925 926 927 928
v 0.209464 -0.404109 0.148934
v 0.305762 -0.463524 0.335887
v 0.225485 -0.524193 0.357956
v 0.129186 -0.464778 0.171003
f 929 930 931 932
v 0.24226 -0.007304 0.258148
v 0.338558 -0.06672 0.445101
v 0.384461 -0.145122 0.39654
v 0.288163 -0.085707 0.209587
f 933 934 935 936
v -0.257624 -0.32317 0.330104
v -0.242712 -0.412511 0.379175
v -0.288615 -0.334108 0.427737
f 937 938 939
v -0.192317 -0.393523 0.61469
v -0.146414 -0.471926 0.566129
v -0.097128 -0.422195 0.641693
f 940 941 942
v -0.209916 -0.015707 0.488389
v -0.129638 0.044962 0.466321
v -0.178925 -0.004768 0.390757
f 943 944 945
v -0.018428 -0.103794 0.702345
v -0.03334 -0.014453 0.653274
v -0.113618 -0.075122 0.675343
f 946 947 948
v 0.209464 -0.404109 0.148934
v 0.129186 -0.464778 0.171003
v 0.114274 -0.375437 0.121931
f 949 950 951
v 0.274771 -0.474462 0.43352
v 0.225485 -0.524193 0.357956
v 0.305762 -0.463524 0.335887
f 952 953 954
v 0.192974 -0.057035 0.182584
v 0.24226 -0.007304 0.258148
v 0.288163 -0.085707 0.209587
f 955 956 957
v 0.384461 -0.145122 0.39654
v 0.338558 -0.06672 0.445101
v 0.35347 -0.156061 0.494173
f 958 959 960
o fragment_08
v -0.418553 -0.246812 0.385844
v -0.380526 -0.19986 0.607797
v -0.39484 -0.113196 0.671384
v -0.523044 0.224112 0.621994
v -0.562711 0.279474 0.537612
v -0.600738 0.232521 0.315658
v -0.586424 0.145858 0.252072
v -0.45822 -0.191451 0.301461
f 961 962 963 964 965 966 967 968
v -0.052032 -0.051589 0.202282
v -0.180236 0.285719 0.152892
v -0.194551 0.372383 0.216479
v -0.156523 0.419335 0.438433
v -0.116857 0.363974 0.522815
v 0.011347 0.026665 0.572205
v 0.025662 -0.059998 0.508618
v -0.012366 -0.106951 0.286665
f 969 970 971 972 973 974 975 976
v -0.360588 -0.238139 0.294611
v -0.095683 -0.146925 0.229929
v -0.012366 -0.106951 0.286665
v 0.025662 -0.059998 0.508618
v -0.032304 -0.068671 0.599851
v -0.297209 -0.159885 0.664534
v -0.380526 -0.19986 0.607797
v -0.418553 -0.246812 0.385844
f 977 978 979 980 981 982 983 984
v -0.600738 0.232521 0.315658
v -0.562711 0.279474 0.537612
v -0.479394 0.319448 0.594348
v -0.214489 0.410662 0.529666
v -0.156523 0.419335 0.438433
v -0.194551 0.372383 0.216479
v -0.277868 0.332408 0.159743
v -0.542773 0.241194 0.224425
f 985 986 987 988 989 990 991 992
v -0.45822 -0.191451 0.301461
v -0.586424 0.145858 0.252072
v -0.542773 0.241194 0.224425
v -0.277868 0.332408 0.159743
v -0.180236 0.285719 0.152892
v -0.052032 -0.051589 0.202282
v -0.095683 -0.146925 0.229929
v -0.360588 -0.238139 0.294611
f 993 994 995 996 997 998 999 1000
v -0.297209 -0.159885 0.664534
v -0.032304 -0.068671 0.599851
v 0.011347 0.026665 0.572205
v -0.116857 0.363974 0.522815
v -0.214489 0.410662 0.529666
v -0.479394 0.319448 0.594348
v -0.523044 0.224112 0.621994
v -0.39484 -0.113196 0.671384
f 1001 1002 1003 1004 1005 1006 1007 1008
v -0.387578 -0.167127 0.284213
v -0.122673 -0.075913 0.219531
v -0.083007 -0.131274 0.303913
v -0.347912 -0.222488 0.368595
f 1009 1010 1011 1012
v -0.309884 -0.175536 0.590549
v -0.04498 -0.084322 0.525867
v -0.059294 0.002341 0.589454
v -0.324199 -0.088873 0.654136
f 1013 1014 1015 1016
v -0.530097 0.256845 0.29841
v -0.265192 0.348059 0.233728
v -0.250878 0.261396 0.170141
v -0.515782 0.170182 0.234823
f 1017 1018 1019 1020
v -0.452403 0.248436 0.604746
v -0.187498 0.33965 0.540064
v -0.227165 0.395011 0.455681
v -0.492069 0.303797 0.520363
f 1021 1022 1023 1024
v -0.445544 -0.1758 0.375446
v -0.573748 0.161509 0.326056
v -0.515782 0.170182 0.234823
v -0.387578 -0.167127 0.284213
f 1025 1026 1027 1028
v -0.122673 -0.075913 0.219531
v -0.250878 0.261396 0.170141
v -0.167561 0.30137 0.226877
v -0.039356 -0.035938 0.276267
f 1029 1030 1031 1032
v -0.324199 -0.088873 0.654136
v -0.452403 0.248436 0.604746
v -0.53572 0.208461 0.54801
v -0.407516 -0.128847 0.5974
f 1033 1034 1035 1036
v -0.001329 0.011014 0.49822
v -0.129533 0.348323 0.448831
v -0.187498 0.33965 0.540064
v -0.059294 0.002341 0.589454
f 1037 1038 1039 1040
v -0.347912 -0.222488 0.368595
v -0.309884 -0.175536 0.590549
v -0.407516 -0.128847 0.5974
v -0.445544 -0.1758 0.375446
f 1041 1042 1043 1044
v -0.573748 0.161509 0.326056
v -0.53572 0.208461 0.54801
v -0.492069 0.303797 0.520363
v -0.530097 0.256845 0.29841
f 1045 1046 1047 1048
v -0.039356 -0.035938 0.276267
v -0.001329 0.011014 0.49822
v -0.04498 -0.084322 0.525867
v -0.083007 -0.131274 0.303913
f 1049 1050 1051 1052
v -0.265192 0.348059 0.233728
v -0.227165 0.395011 0.455681
v -0.129533 0.348323 0.448831
v -0.167561 0.30137 0.226877
f 1053 1054 1055 1056
v -0.387578 -0.167127 0.284213
v -0.347912 -0.222488 0.368595
v -0.445544 -0.1758 0.375446
f 1057 1058 1059
v -0.407516 -0.128847 0.5974
v -0.309884 -0.175536 0.590549
v -0.324199 -0.088873 0.654136
f 1060 1061 1062
v -0.573748 0.161509 0.326056
v -0.530097 0.256845 0.29841
v -0.515782 0.170182 0.234823
f 1063 1064 1065
v -0.452403 0.248436 0.604746
v -0.492069 0.303797 0.520363
v -0.53572 0.208461 0.54801
f 1066 1067 1068
v -0.039356 -0.035938 0.276267
v -0.083007 -0.131274 0.303913
v -0.122673 -0.075913 0.219531
f 1069 1070 1071
v -0.059294 0.002341 0.589454
v -0.04498 -0.084322 0.525867
v -0.001329 0.011014 0.49822
f 1072 1073 1074
v -0.250878 0.261396 0.170141
v -0.265192 0.348059 0.233728
v -0.167561 0.30137 0.226877
f 1075 1076 1077
v -0.129533 0.348323 0.448831
v -0.227165 0.395011 0.455681
v -0.187498 0.33965 0.540064
f 1078 1079 1080
o fragment_09
v 0.303141 -0.013052 0.029619
v 0.177806 -0.141778 0.278196
v 0.118822 -0.105718 0.361738
v 0.035873 0.099008 0.425932
v 0.039557 0.199432 0.385185
v 0.164893 0.328157 0.136609
v 0.223876 0.292097 0.053067
v 0.306825 0.087371 -0.011127
f 1081 1082 1083 1084 1085 1086 1087 1088
v 0.692557 0.169361 0.225822
v 0.609608 0.374087 0.290016
v 0.550625 0.410147 0.373558
v 0.425289 0.281422 0.622134
v 0.421605 0.180998 0.662881
v 0.504554 -0.023728 0.598687
v 0.563538 -0.059788 0.515145
v 0.688873 0.068937 0.266568
f 1089 1090 1091 1092 1093 1094 1095 1096
v 0.398763 0.032794 0.006966
v 0.655918 0.087454 0.164933
v 0.688873 0.068937 0.266568
v 0.563538 -0.059788 0.515145
v 0.467915 -0.105635 0.537797
v 0.210761 -0.160295 0.379831
v 0.177806 -0.141778 0.278196
v 0.303141 -0.013052 0.029619
f 1097 1098 1099 1100 1101 1102 1103 1104
v 0.164893 0.328157 0.136609
v 0.039557 0.199432 0.385185
v 0.072512 0.180915 0.486821
v 0.329667 0.235575 0.644787
v 0.425289 0.281422 0.622134
v 0.550625 0.410147 0.373558
v 0.51767 0.428664 0.271922
v 0.260515 0.374004 0.113956
f 1105 1106 1107 1108 1109 1110 1111 1112
v 0.306825 0.087371 -0.011127
v 0.223876 0.292097 0.053067
v 0.260515 0.374004 0.113956
v 0.51767 0.428664 0.271922
v 0.609608 0.374087 0.290016
v 0.692557 0.169361 0.225822
v 0.655918 0.087454 0.164933
v 0.398763 0.032794 0.006966
f 1113 1114 1115 1116 1117 1118 1119 1120
v 0.210761 -0.160295 0.379831
v 0.467915 -0.105635 0.537797
v 0.504554 -0.023728 0.598687
v 0.421605 0.180998 0.662881
v 0.329667 0.235575 0.644787
v 0.072512 0.180915 0.486821
v 0.035873 0.099008 0.425932
v 0.118822 -0.105718 0.361738
f 1121 1122 1123 1124 1125 1126 1127 1128
v 0.371114 0.101036 0.028364
v 0.628268 0.155696 0.186331
v 0.624584 0.055272 0.227077
v 0.36743 0.000613 0.069111
f 1129 1130 1131 1132
v 0.242095 -0.128113 0.317687
v 0.499249 -0.073453 0.475653
v 0.440266 -0.037393 0.559195
v 0.183111 -0.092053 0.401229
f 1133 1134 1135 1136
v 0.229181 0.341822 0.1761
v 0.486336 0.396482 0.334066
v 0.545319 0.360422 0.250524
v 0.288165 0.305762 0.092558
f 1137 1138 1139 1140
v 0.100162 0.112673 0.465423
v 0.357317 0.167333 0.623389
v 0.361001 0.267757 0.582643
v 0.103846 0.213097 0.424677
f 1141 1142 1143 1144
v 0.275491 0.05519 0.051017
v 0.192542 0.259916 0.115211
v 0.288165 0.305762 0.092558
v 0.371114 0.101036 0.028364
f 1145 1146 1147 1148
v 0.628268 0.155696 0.186331
v 0.545319 0.360422 0.250524
v 0.578274 0.341905 0.35216
v 0.661223 0.137179 0.287966
f 1149 1150 1151 1152
v 0.183111 -0.092053 0.401229
v 0.100162 0.112673 0.465423
v 0.067207 0.13119 0.363787
v 0.150156 -0.073536 0.299594
f 1153 1154 1155 1156
v 0.535888 0.008454 0.536543
v 0.452939 0.21318 0.600737
v 0.357317 0.167333 0.623389
v 0.440266 -0.037393 0.559195
f 1157 1158 1159 1160
v 0.36743 0.000613 0.069111
v 0.242095 -0.128113 0.317687
v 0.150156 -0.073536 0.299594
v 0.275491 0.05519 0.051017
f 1161 1162 1163 1164
v 0.192542 0.259916 0.115211
v 0.067207 0.13119 0.363787
v 0.103846 0.213097 0.424677
v 0.229181 0.341822 0.1761
f 1165 1166 1167 1168
v 0.661223 0.137179 0.287966
v 0.535888 0.008454 0.536543
v 0.499249 -0.073453 0.475653
v 0.624584 0.055272 0.227077
f 1169 1170 1171 1172
v 0.486336 0.396482 0.334066
v 0.361001 0.267757 0.582643
v 0.452939 0.21318 0.600737
v 0.578274 0.341905 0.35216
f 1173 1174 1175 1176
v 0.371114 0.101036 0.028364
v 0.36743 0.000613 0.069111
v 0.275491 0.05519 0.051017
f 1177 1178 1179
v 0.150156 -0.073536 0.299594
v 0.242095 -0.128113 0.317687
v 0.183111 -0.092053 0.401229
f 1180 1181 1182
v 0.192542 0.259916 0.115211
v 0.229181 0.341822 0.1761
v 0.288165 0.305762 0.092558
f 1183 1184 1185
v 0.100162 0.112673 0.465423
v 0.103846 0.213097 0.424677
v 0.067207 0.13119 0.363787
f 1186 1187 1188
v 0.661223 0.137179 0.287966
v 0.624584 0.055272 0.227077
v 0.628268 0.155696 0.186331
f 1189 1190 1191
v 0.440266 -0.037393 0.559195
v 0.499249 -0.073453 0.475653
v 0.535888 0.008454 0.536543
f 1192 1193 1194
v 0.545319 0.360422 0.250524
v 0.486336 0.396482 0.334066
v 0.578274 0.341905 0.35216
f 1195 1196 1197
v 0.452939 0.21318 0.600737
v 0.361001 0.267757 0.582643
v 0.357317 0.167333 0.623389
f 1198 1199 1200
o fragment_10
v -0.200059 0.227373 -0.227323
v -0.16242 0.316181 0.035401
v -0.168072 0.41707 0.087873
v -0.217514 0.643097 0.018553
v -0.244822 0.692892 -0.080132
v -0.282461 0.604084 -0.342856
v -0.276809 0.503195 -0.395328
v -0.227367 0.277168 -0.326008
f 1201 1202 1203 1204 1205 1206 1207 1208
v 0.255852 0.353702 -0.421107
v 0.206411 0.579729 -0.490427
v 0.200758 0.680619 -0.437955
v 0.238397 0.769427 -0.175231
v 0.265706 0.719632 -0.076546
v 0.315147 0.493605 -0.007226
v 0.3208 0.392715 -0.059698
v 0.283161 0.303907 -0.322422
f 1209 1210 1211 1212 1213 1214 1215 1216
v -0.132828 0.214189 -0.318263
v 0.194274 0.265997 -0.382638
v 0.283161 0.303907 -0.322422
v 0.3208 0.392715 -0.059698
v 0.253569 0.405899 0.031243
v -0.073533 0.354091 0.095617
v -0.16242 0.316181 0.035401
v -0.200059 0.227373 -0.227323
f 1217 1218 1219 1220 1221 1222 1223 1224
v -0.282461 0.604084 -0.342856
v -0.244822 0.692892 -0.080132
v -0.155936 0.730803 -0.019916
v 0.171167 0.782611 -0.08429
v 0.238397 0.769427 -0.175231
v 0.200758 0.680619 -0.437955
v 0.111872 0.642708 -0.498171
v -0.215231 0.5909 -0.433796
f 1225 1226 1227 1228 1229 1230 1231 1232
v -0.227367 0.277168 -0.326008
v -0.276809 0.503195 -0.395328
v -0.215231 0.5909 -0.433796
v 0.111872 0.642708 -0.498171
v 0.206411 0.579729 -0.490427
v 0.255852 0.353702 -0.421107
v 0.194274 0.265997 -0.382638
v -0.132828 0.214189 -0.318263
f 1233 1234 1235 1236 1237 1238 1239 1240
v -0.073533 0.354091 0.095617
v 0.253569 0.405899 0.031243
v 0.315147 0.493605 -0.007226
v 0.265706 0.719632 -0.076546
v 0.171167 0.782611 -0.08429
v -0.155936 0.730803 -0.019916
v -0.217514 0.643097 0.018553
v -0.168072 0.41707 0.087873
f 1241 1242 1243 1244 1245 1246 1247 1248
v -0.149309 0.289531 -0.34137
v 0.177794 0.341339 -0.405745
v 0.205102 0.291544 -0.30706
v -0.122 0.239736 -0.242685
f 1249 1250 1251 1252
v -0.084361 0.328544 0.020039
v 0.242741 0.380352 -0.044336
v 0.237088 0.481242 0.008136
v -0.090014 0.429434 0.072511
f 1253 1254 1255 1256
v -0.204403 0.616448 -0.358218
v 0.1227 0.668256 -0.422593
v 0.128352 0.567366 -0.475064
v -0.19875 0.515558 -0.41069
f 1257 1258 1259 1260
v -0.139455 0.655461 0.003191
v 0.187647 0.707268 -0.061184
v 0.160339 0.757063 -0.159869
v -0.166764 0.705255 -0.095494
f 1261 1262 1263 1264
v -0.216539 0.302715 -0.25043
v -0.265981 0.528742 -0.319749
v -0.19875 0.515558 -0.41069
v -0.149309 0.289531 -0.34137
f 1265 1266 1267 1268
v 0.177794 0.341339 -0.405745
v 0.128352 0.567366 -0.475064
v 0.217239 0.605277 -0.414848
v 0.26668 0.37925 -0.345529
f 1269 1270 1271 1272
v -0.090014 0.429434 0.072511
v -0.139455 0.655461 0.003191
v -0.228342 0.61755 -0.057025
v -0.1789 0.391523 0.012295
f 1273 1274 1275 1276
v 0.304319 0.468057 -0.082804
v 0.254878 0.694084 -0.152124
v 0.187647 0.707268 -0.061184
v 0.237088 0.481242 0.008136
f 1277 1278 1279 1280
v -0.122 0.239736 -0.242685
v -0.084361 0.328544 0.020039
v -0.1789 0.391523 0.012295
v -0.216539 0.302715 -0.25043
f 1281 1282 1283 1284
v -0.265981 0.528742 -0.319749
v -0.228342 0.61755 -0.057025
v -0.166764 0.705255 -0.095494
v -0.204403 0.616448 -0.358218
f 1285 1286 1287 1288
v 0.26668 0.37925 -0.345529
v 0.304319 0.468057 -0.082804
v 0.242741 0.380352 -0.044336
v 0.205102 0.291544 -0.30706
f 1289 1290 1291 1292
v 0.1227 0.668256 -0.422593
v 0.160339 0.757063 -0.159869
v 0.254878 0.694084 -0.152124
v 0.217239 0.605277 -0.414848
f 1293 1294 1295 1296
v -0.149309 0.289531 -0.34137
v -0.122 0.239736 -0.242685
v -0.216539 0.302715 -0.25043
f 1297 1298 1299
v -0.1789 0.391523 0.012295
v -0.084361 0.328544 0.020039
v -0.090014 0.429434 0.072511
f 1300 1301 1302
v -0.265981 0.528742 -0.319749
v -0.204403 0.616448 -0.358218
v -0.19875 0.515558 -0.41069
f 1303 1304 1305
v -0.139455 0.655461 0.003191
v -0.166764 0.705255 -0.095494
v -0.228342 0.61755 -0.057025
f 1306 1307 1308
v 0.26668 0.37925 -0.345529
v 0.205102 0.291544 -0.30706
v 0.177794 0.341339 -0.405745
f 1309 1310 1311
v 0.237088 0.481242 0.008136
v 0.242741 0.380352 -0.044336
v 0.304319 0.468057 -0.082804
f 1312 1313 1314
v 0.128352 0.567366 -0.475064
v 0.1227 0.668256 -0.422593
v 0.217239 0.605277 -0.414848
f 1315 1316 1317
v 0.254878 0.694084 -0.152124
v 0.160339 0.757063 -0.159869
v 0.187647 0.707268 -0.061184
f 1318 1319 1320
o fragment_11
v -0.371052 -0.569228 -0.462822
v -0.312484 -0.631701 -0.249325
v -0.260787 -0.583845 -0.166888
v -0.124048 -0.291948 -0.118984
v -0.111397 -0.202442 -0.178878
v -0.169965 -0.139968 -0.392375
v -0.221662 -0.187825 -0.474812
v -0.358401 -0.479722 -0.522716
f 1321 1322 1323 1324 1325 1326 1327 1328
v 0.009033 -0.628174 -0.666954
v 0.145772 -0.336278 -0.61905
v 0.197468 -0.288421 -0.536613
v 0.256036 -0.350895 -0.323116
v 0.243385 -0.440401 -0.263222
v 0.106647 -0.732297 -0.311126
v 0.05495 -0.780154 -0.393563
v -0.003618 -0.71768 -0.60706
f 1329 1330 1331 1332 1333 1334 1335 1336
v -0.323768 -0.575394 -0.560213
v -0.089947 -0.669864 -0.652
v -0.003618 -0.71768 -0.60706
v 0.05495 -0.780154 -0.393563
v 0.007667 -0.773987 -0.296172
v -0.226155 -0.679517 -0.204385
v -0.312484 -0.631701 -0.249325
v -0.371052 -0.569228 -0.462822
f 1337 1338 1339 1340 1341 1342 1343 1344
v -0.169965 -0.139968 -0.392375
v -0.111397 -0.202442 -0.178878
v -0.025068 -0.250258 -0.133938
v 0.208753 -0.344728 -0.225725
v 0.256036 -0.350895 -0.323116
v 0.197468 -0.288421 -0.536613
v 0.111139 -0.240605 -0.581553
v -0.122682 -0.146135 -0.489766
f 1345 1346 1347 1348 1349 1350 1351 1352
v -0.358401 -0.479722 -0.522716
v -0.221662 -0.187825 -0.474812
v -0.122682 -0.146135 -0.489766
v 0.111139 -0.240605 -0.581553
v 0.145772 -0.336278 -0.61905
v 0.009033 -0.628174 -0.666954
v -0.089947 -0.669864 -0.652
v -0.323768 -0.575394 -0.560213
f 1353 1354 1355 1356 1357 1358 1359 1360
v -0.226155 -0.679517 -0.204385
v 0.007667 -0.773987 -0.296172
v 0.106647 -0.732297 -0.311126
v 0.243385 -0.440401 -0.263222
v 0.208753 -0.344728 -0.225725
v -0.025068 -0.250258 -0.133938
v -0.124048 -0.291948 -0.118984
v -0.260787 -0.583845 -0.166888
f 1361 1362 1363 1364 1365 1366 1367 1368
v -0.291594 -0.506713 -0.548941
v -0.057773 -0.601183 -0.640729
v -0.070424 -0.690689 -0.580835
v -0.304246 -0.596219 -0.489047
f 1369 1370 1371 1372
v -0.245677 -0.658693 -0.27555
v -0.011856 -0.753163 -0.367338
v 0.03984 -0.705306 -0.284901
v -0.193981 -0.610836 -0.193113
f 1373 1374 1375 1376
v -0.103159 -0.16696 -0.4186
v 0.130662 -0.26143 -0.510388
v 0.078966 -0.309287 -0.592825
v -0.154856 -0.214817 -0.501037
f 1377 1378 1379 1380
v -0.057242 -0.31894 -0.145209
v 0.176579 -0.41341 -0.236997
v 0.18923 -0.323904 -0.296891
v -0.044591 -0.229434 -0.205103
f 1381 1382 1383 1384
v -0.338878 -0.500546 -0.451551
v -0.202139 -0.20865 -0.403647
v -0.154856 -0.214817 -0.501037
v -0.291594 -0.506713 -0.548941
f 1385 1386 1387 1388
v -0.057773 -0.601183 -0.640729
v 0.078966 -0.309287 -0.592825
v 0.165294 -0.357103 -0.547884
v 0.028556 -0.648999 -0.595788
f 1389 1390 1391 1392
v -0.193981 -0.610836 -0.193113
v -0.057242 -0.31894 -0.145209
v -0.143571 -0.271124 -0.19015
v -0.28031 -0.56302 -0.238054
f 1393 1394 1395 1396
v 0.087124 -0.711473 -0.382291
v 0.223863 -0.419577 -0.334388
v 0.176579 -0.41341 -0.236997
v 0.03984 -0.705306 -0.284901
f 1397 1398 1399 1400
v -0.304246 -0.596219 -0.489047
v -0.245677 -0.658693 -0.27555
v -0.28031 -0.56302 -0.238054
v -0.338878 -0.500546 -0.451551
f 1401 1402 1403 1404
v -0.202139 -0.20865 -0.403647
v -0.143571 -0.271124 -0.19015
v -0.044591 -0.229434 -0.205103
v -0.103159 -0.16696 -0.4186
f 1405 1406 1407 1408
v 0.028556 -0.648999 -0.595788
v 0.087124 -0.711473 -0.382291
v -0.011856 -0.753163 -0.367338
v -0.070424 -0.690689 -0.580835
f 1409 1410 1411 1412
v 0.130662 -0.26143 -0.510388
v 0.18923 -0.323904 -0.296891
v 0.223863 -0.419577 -0.334388
v 0.165294 -0.357103 -0.547884
f 1413 1414 1415 1416
v -0.291594 -0.506713 -0.548941
v -0.304246 -0.596219 -0.489047
v -0.338878 -0.500546 -0.451551
f 1417 1418 1419
v -0.28031 -0.56302 -0.238054
v -0.245677 -0.658693 -0.27555
v -0.193981 -0.610836 -0.193113
f 1420 1421 1422
v -0.202139 -0.20865 -0.403647
v -0.103159 -0.16696 -0.4186
v -0.154856 -0.214817 -0.501037
f 1423 1424 1425
v -0.057242 -0.31894 -0.145209
v -0.044591 -0.229434 -0.205103
v -0.143571 -0.271124 -0.19015
f 1426 1427 1428
v 0.028556 -0.648999 -0.595788
v -0.070424 -0.690689 -0.580835
v -0.057773 -0.601183 -0.640729
f 1429 1430 1431
v 0.03984 -0.705306 -0.284901
v -0.011856 -0.753163 -0.367338
v 0.087124 -0.711473 -0.382291
f 1432 1433 1434
v 0.078966 -0.309287 -0.592825
v 0.130662 -0.26143 -0.510388
v 0.165294 -0.357103 -0.547884
f 1435 1436 1437
v 0.223863 -0.419577 -0.334388
v 0.18923 -0.323904 -0.296891
v 0.176579 -0.41341 -0.236997
f 1438 1439 1440
o fragment_12
v -0.563783 -0.341827 -0.268967
v -0.660582 -0.462034 0.004917
v -0.711598 -0.425407 0.086575
v -0.857541 -0.096215 0.179476
v -0.863699 -0.003882 0.134212
v -0.766901 0.116325 -0.139672
v -0.715885 0.079697 -0.221329
v -0.569941 -0.249494 -0.31423
f 1441 1442 1443 1444 1445 1446 1447 1448
v -0.254274 -0.152984 -0.160306
v -0.400217 0.176207 -0.067405
v -0.451233 0.212835 0.014252
v -0.548032 0.092627 0.288136
v -0.541874 0.000294 0.3334
v -0.39593 -0.328897 0.240499
v -0.344914 -0.365525 0.158841
v -0.248116 -0.245318 -0.115043
f 1449 1450 1451 1452 1453 1454 1455 1456
v -0.478221 -0.294673 -0.301643
v -0.28882 -0.236767 -0.209288
v -0.248116 -0.245318 -0.115043
v -0.344914 -0.365525 0.158841
v -0.430477 -0.41268 0.191517
v -0.619877 -0.470585 0.099162
v -0.660582 -0.462034 0.004917
v -0.563783 -0.341827 -0.268967
f 1457 1458 1459 1460 1461 1462 1463 1464
v -0.766901 0.116325 -0.139672
v -0.863699 -0.003882 0.134212
v -0.822995 -0.012433 0.228457
v -0.633594 0.045473 0.320812
v -0.548032 0.092627 0.288136
v -0.451233 0.212835 0.014252
v -0.491938 0.221386 -0.079993
v -0.681338 0.16348 -0.172348
f 1465 1466 1467 1468 1469 1470 1471 1472
v -0.569941 -0.249494 -0.31423
v -0.715885 0.079697 -0.221329
v -0.681338 0.16348 -0.172348
v -0.491938 0.221386 -0.079993
v -0.400217 0.176207 -0.067405
v -0.254274 -0.152984 -0.160306
v -0.28882 -0.236767 -0.209288
v -0.478221 -0.294673 -0.301643
f 1473 1474 1475 1476 1477 1478 1479 1480
v -0.619877 -0.470585 0.099162
v -0.430477 -0.41268 0.191517
v -0.39593 -0.328897 0.240499
v -0.541874 0.000294 0.3334
v -0.633594 0.045473 0.320812
v -0.822995 -0.012433 0.228457
v -0.857541 -0.096215 0.179476
v -0.711598 -0.425407 0.086575
f 1481 1482 1483 1484 1485 1486 1487 1488
v -0.506808 -0.230192 -0.283446
v -0.317407 -0.172286 -0.191091
v -0.311249 -0.26462 -0.145827
v -0.50065 -0.322525 -0.238182
f 1489 1490 1491 1492
v -0.597448 -0.442733 0.035702
v -0.408048 -0.384827 0.128056
v -0.459063 -0.348199 0.209714
v -0.648464 -0.406105 0.117359
f 1493 1494 1495 1496
v -0.703767 0.135627 -0.108887
v -0.514367 0.193533 -0.016532
v -0.463351 0.156905 -0.09819
v -0.652751 0.098999 -0.190545
f 1497 1498 1499 1500
v -0.794408 -0.076914 0.21026
v -0.605007 -0.019008 0.302615
v -0.611165 0.073326 0.257351
v -0.800566 0.01542 0.164997
f 1501 1502 1503 1504
v -0.59237 -0.277347 -0.25077
v -0.738314 0.051845 -0.157869
v -0.652751 0.098999 -0.190545
v -0.506808 -0.230192 -0.283446
f 1505 1506 1507 1508
v -0.317407 -0.172286 -0.191091
v -0.463351 0.156905 -0.09819
v -0.422646 0.148354 -0.003945
v -0.276703 -0.180837 -0.096846
f 1509 1510 1511 1512
v -0.648464 -0.406105 0.117359
v -0.794408 -0.076914 0.21026
v -0.835112 -0.068363 0.116015
v -0.689169 -0.397554 0.023114
f 1513 1514 1515 1516
v -0.373501 -0.301044 0.177038
v -0.519445 0.028147 0.269939
v -0.605007 -0.019008 0.302615
v -0.459063 -0.348199 0.209714
f 1517 1518 1519 1520
v -0.50065 -0.322525 -0.238182
v -0.597448 -0.442733 0.035702
v -0.689169 -0.397554 0.023114
v -0.59237 -0.277347 -0.25077
f 1521 1522 1523 1524
v -0.738314 0.051845 -0.157869
v -0.835112 -0.068363 0.116015
v -0.800566 0.01542 0.164997
v -0.703767 0.135627 -0.108887
f 1525 1526 1527 1528
v -0.276703 -0.180837 -0.096846
v -0.373501 -0.301044 0.177038
v -0.408048 -0.384827 0.128056
v -0.311249 -0.26462 -0.145827
f 1529 1530 1531 1532
v -0.514367 0.193533 -0.016532
v -0.611165 0.073326 0.257351
v -0.519445 0.028147 0.269939
v -0.422646 0.148354 -0.003945
f 1533 1534 1535 1536
v -0.506808 -0.230192 -0.283446
v -0.50065 -0.322525 -0.238182
v -0.59237 -0.277347 -0.25077
f 1537 1538 1539
v -0.689169 -0.397554 0.023114
v -0.597448 -0.442733 0.035702
v -0.648464 -0.406105 0.117359
f 1540 1541 1542
v -0.738314 0.051845 -0.157869
v -0.703767 0.135627 -0.108887
v -0.652751 0.098999 -0.190545
f 1543 1544 1545
v -0.794408 -0.076914 0.21026
v -0.800566 0.01542 0.164997
v -0.835112 -0.068363 0.116015
f 1546 1547 1548
v -0.276703 -0.180837 -0.096846
v -0.311249 -0.26462 -0.145827
v -0.317407 -0.172286 -0.191091
f 1549 1550 1551
v -0.459063 -0.348199 0.209714
v -0.408048 -0.384827 0.128056
v -0.373501 -0.301044 0.177038
f 1552 1553 1554
v -0.463351 0.156905 -0.09819
v -0.514367 0.193533 -0.016532
v -0.422646 0.148354 -0.003945
f 1555 1556 1557
v -0.519445 0.028147 0.269939
v -0.611165 0.073326 0.257351
v -0.605007 -0.019008 0.302615
f 1558 1559 1560
o fragment_13
v 0.345765 -0.370383 0.093221
v 0.442779 -0.289657 0.294646
v 0.483978 -0.200223 0.324921
v 0.533471 0.078985 0.189183
v 0.515209 0.118941 0.096005
v 0.418195 0.038215 -0.10542
v 0.376997 -0.051218 -0.135696
v 0.327503 -0.330427 4.2e-05
f 1561 1562 1563 1564 1565 1566 1567 1568
v 0.65502 -0.4432 -0.112506
v 0.704514 -0.163992 -0.248244
v 0.745713 -0.074558 -0.217969
v 0.842727 0.006168 -0.016544
v 0.860989 -0.033788 0.076635
v 0.811495 -0.312997 0.212373
v 0.770297 -0.40243 0.182097
v 0.673282 -0.483156 -0.019328
f 1569 1570 1571 1572 1573 1574 1575 1576
v 0.381538 -0.417676 0.008984
v 0.578049 -0.48534 -0.058545
v 0.673282 -0.483156 -0.019328
v 0.770297 -0.40243 0.182097
v 0.734523 -0.355137 0.266334
v 0.538013 -0.287473 0.333863
v 0.442779 -0.289657 0.294646
v 0.345765 -0.370383 0.093221
f 1577 1578 1579 1580 1581 1582 1583 1584
v 0.418195 0.038215 -0.10542
v 0.515209 0.118941 0.096005
v 0.610443 0.121125 0.135222
v 0.806954 0.053461 0.067693
v 0.842727 0.006168 -0.016544
v 0.745713 -0.074558 -0.217969
v 0.650479 -0.076742 -0.257186
v 0.453968 -0.009078 -0.189657
f 1585 1586 1587 1588 1589 1590 1591 1592
v 0.327503 -0.330427 4.2e-05
v 0.376997 -0.051218 -0.135696
v 0.453968 -0.009078 -0.189657
v 0.650479 -0.076742 -0.257186
v 0.704514 -0.163992 -0.248244
v 0.65502 -0.4432 -0.112506
v 0.578049 -0.48534 -0.058545
v 0.381538 -0.417676 0.008984
f 1593 1594 1595 1596 1597 1598 1599 1600
v 0.538013 -0.287473 0.333863
v 0.734523 -0.355137 0.266334
v 0.811495 -0.312997 0.212373
v 0.860989 -0.033788 0.076635
v 0.806954 0.053461 0.067693
v 0.610443 0.121125 0.135222
v 0.533471 0.078985 0.189183
v 0.483978 -0.200223 0.324921
f 1601 1602 1603 1604 1605 1606 1607 1608
v 0.393006 -0.352982 -0.022467
v 0.589517 -0.420646 -0.089997
v 0.607779 -0.460602 0.003182
v 0.411268 -0.392938 0.070711
f 1609 1610 1611 1612
v 0.508283 -0.312211 0.272136
v 0.704793 -0.379875 0.204607
v 0.745992 -0.290442 0.234882
v 0.549481 -0.222778 0.302412
f 1613 1614 1615 1616
v 0.483699 0.01566 -0.12793
v 0.680209 -0.052004 -0.195459
v 0.639011 -0.141437 -0.225735
v 0.4425 -0.073773 -0.158205
f 1617 1618 1619 1620
v 0.598975 0.05643 0.166674
v 0.795485 -0.011234 0.099144
v 0.777223 0.028722 0.005966
v 0.580713 0.096386 0.073495
f 1621 1622 1623 1624
v 0.357233 -0.305688 0.061769
v 0.406727 -0.02648 -0.073969
v 0.4425 -0.073773 -0.158205
v 0.393006 -0.352982 -0.022467
f 1625 1626 1627 1628
v 0.589517 -0.420646 -0.089997
v 0.639011 -0.141437 -0.225735
v 0.734244 -0.139253 -0.186517
v 0.684751 -0.418462 -0.050779
f 1629 1630 1631 1632
v 0.549481 -0.222778 0.302412
v 0.598975 0.05643 0.166674
v 0.503741 0.054246 0.127456
v 0.454247 -0.224962 0.263194
f 1633 1634 1635 1636
v 0.781765 -0.337735 0.150646
v 0.831259 -0.058527 0.014908
v 0.795485 -0.011234 0.099144
v 0.745992 -0.290442 0.234882
f 1637 1638 1639 1640
v 0.411268 -0.392938 0.070711
v 0.508283 -0.312211 0.272136
v 0.454247 -0.224962 0.263194
v 0.357233 -0.305688 0.061769
f 1641 1642 1643 1644
v 0.406727 -0.02648 -0.073969
v 0.503741 0.054246 0.127456
v 0.580713 0.096386 0.073495
v 0.483699 0.01566 -0.12793
f 1645 1646 1647 1648
v 0.684751 -0.418462 -0.050779
v 0.781765 -0.337735 0.150646
v 0.704793 -0.379875 0.204607
v 0.607779 -0.460602 0.003182
f 1649 1650 1651 1652
v 0.680209 -0.052004 -0.195459
v 0.777223 0.028722 0.005966
v 0.831259 -0.058527 0.014908
v 0.734244 -0.139253 -0.186517
f 1653 1654 1655 1656
v 0.393006 -0.352982 -0.022467
v 0.411268 -0.392938 0.070711
v 0.357233 -0.305688 0.061769
f 1657 1658 1659
v 0.454247 -0.224962 0.263194
v 0.508283 -0.312211 0.272136
v 0.549481 -0.222778 0.302412
f 1660 1661 1662
v 0.406727 -0.02648 -0.073969
v 0.483699 0.01566 -0.12793
v 0.4425 -0.073773 -0.158205
f 1663 1664 1665
v 0.598975 0.05643 0.166674
v 0.580713 0.096386 0.073495
v 0.503741 0.054246 0.127456
f 1666 1667 1668
v 0.684751 -0.418462 -0.050779
v 0.607779 -0.460602 0.003182
v 0.589517 -0.420646 -0.089997
f 1669 1670 1671
v 0.745992 -0.290442 0.234882
v 0.704793 -0.379875 0.204607
v 0.781765 -0.337735 0.150646
f 1672 1673 1674
v 0.639011 -0.141437 -0.225735
v 0.680209 -0.052004 -0.195459
v 0.734244 -0.139253 -0.186517
f 1675 1676 1677
v 0.831259 -0.058527 0.014908
v 0.777223 0.028722 0.005966
v 0.795485 -0.011234 0.099144
f 1678 1679 1680
o fragment_14
v -0.622737 0.256922 0.139705
v -0.465569 0.196361 0.405153
v -0.433856 0.252545 0.485463
v -0.447965 0.463195 0.541876
v -0.489085 0.547444 0.499174
v -0.646253 0.608005 0.233726
v -0.677966 0.551821 0.153416
v -0.663856 0.341171 0.097003
f 1681 1682 1683 1684 1685 1686 1687 1688
v -0.299634 0.418589 -0.100984
v -0.313744 0.629239 -0.044571
v -0.28203 0.685423 0.035739
v -0.124863 0.624862 0.301188
v -0.083743 0.540613 0.343889
v -0.069634 0.329963 0.287476
v -0.101347 0.273779 0.207166
v -0.258514 0.33434 -0.058282
f 1689 1690 1691 1692 1693 1694 1695 1696
v -0.596242 0.284327 0.044001
v -0.357842 0.335 -0.085591
v -0.258514 0.33434 -0.058282
v -0.101347 0.273779 0.207166
v -0.127842 0.246374 0.30287
v -0.366242 0.195701 0.432461
v -0.465569 0.196361 0.405153
v -0.622737 0.256922 0.139705
f 1697 1698 1699 1700 1701 1702 1703 1704
v -0.646253 0.608005 0.233726
v -0.489085 0.547444 0.499174
v -0.389758 0.546784 0.526483
v -0.151358 0.597458 0.396892
v -0.124863 0.624862 0.301188
v -0.28203 0.685423 0.035739
v -0.381358 0.686084 0.008431
v -0.619758 0.63541 0.138022
f 1705 1706 1707 1708 1709 1710 1711 1712
v -0.663856 0.341171 0.097003
v -0.677966 0.551821 0.153416
v -0.619758 0.63541 0.138022
v -0.381358 0.686084 0.008431
v -0.313744 0.629239 -0.044571
v -0.299634 0.418589 -0.100984
v -0.357842 0.335 -0.085591
v -0.596242 0.284327 0.044001
f 1713 1714 1715 1716 1717 1718 1719 1720
v -0.366242 0.195701 0.432461
v -0.127842 0.246374 0.30287
v -0.069634 0.329963 0.287476
v -0.083743 0.540613 0.343889
v -0.151358 0.597458 0.396892
v -0.389758 0.546784 0.526483
v -0.447965 0.463195 0.541876
v -0.433856 0.252545 0.485463
f 1721 1722 1723 1724 1725 1726 1727 1728
v -0.600945 0.354543 0.062805
v -0.362545 0.405217 -0.066786
v -0.321425 0.320968 -0.024085
v -0.559825 0.270294 0.105507
f 1729 1730 1731 1732
v -0.402658 0.209733 0.370955
v -0.164258 0.260407 0.241364
v -0.132545 0.316591 0.321674
v -0.370945 0.265917 0.451266
f 1733 1734 1735 1736
v -0.583341 0.621378 0.199529
v -0.344941 0.672051 0.069937
v -0.376655 0.615867 -0.010373
v -0.615055 0.565193 0.119218
f 1737 1738 1739 1740
v -0.385054 0.476568 0.507679
v -0.146654 0.527241 0.378087
v -0.187774 0.61149 0.335385
v -0.426174 0.560817 0.464977
f 1741 1742 1743 1744
v -0.62744 0.327139 0.158509
v -0.641549 0.537789 0.214922
v -0.615055 0.565193 0.119218
v -0.600945 0.354543 0.062805
f 1745 1746 1747 1748
v -0.362545 0.405217 -0.066786
v -0.376655 0.615867 -0.010373
v -0.277327 0.615207 0.016935
v -0.263217 0.404556 -0.039478
f 1749 1750 1751 1752
v -0.370945 0.265917 0.451266
v -0.385054 0.476568 0.507679
v -0.484382 0.477228 0.48037
v -0.470273 0.266578 0.423957
f 1753 1754 1755 1756
v -0.10605 0.343996 0.22597
v -0.12016 0.554646 0.282383
v -0.146654 0.527241 0.378087
v -0.132545 0.316591 0.321674
f 1757 1758 1759 1760
v -0.559825 0.270294 0.105507
v -0.402658 0.209733 0.370955
v -0.470273 0.266578 0.423957
v -0.62744 0.327139 0.158509
f 1761 1762 1763 1764
v -0.641549 0.537789 0.214922
v -0.484382 0.477228 0.48037
v -0.426174 0.560817 0.464977
v -0.583341 0.621378 0.199529
f 1765 1766 1767 1768
v -0.263217 0.404556 -0.039478
v -0.10605 0.343996 0.22597
v -0.164258 0.260407 0.241364
v -0.321425 0.320968 -0.024085
f 1769 1770 1771 1772
v -0.344941 0.672051 0.069937
v -0.187774 0.61149 0.335385
v -0.12016 0.554646 0.282383
v -0.277327 0.615207 0.016935
f 1773 1774 1775 1776
v -0.600945 0.354543 0.062805
v -0.559825 0.270294 0.105507
v -0.62744 0.327139 0.158509
f 1777 1778 1779
v -0.470273 0.266578 0.423957
v -0.402658 0.209733 0.370955
v -0.370945 0.265917 0.451266
f 1780 1781 1782
v -0.641549 0.537789 0.214922
v -0.583341 0.621378 0.199529
v -0.615055 0.565193 0.119218
f 1783 1784 1785
v -0.385054 0.476568 0.507679
v -0.426174 0.560817 0.464977
v -0.484382 0.477228 0.48037
f 1786 1787 1788
v -0.263217 0.404556 -0.039478
v -0.321425 0.320968 -0.024085
v -0.362545 0.405217 -0.066786
f 1789 1790 1791
v -0.132545 0.316591 0.321674
v -0.164258 0.260407 0.241364
v -0.10605 0.343996 0.22597
f 1792 1793 1794
v -0.376655 0.615867 -0.010373
v -0.344941 0.672051 0.069937
v -0.277327 0.615207 0.016935
f 1795 1796 1797
v -0.12016 0.554646 0.282383
v -0.187774 0.61149 0.335385
v -0.146654 0.527241 0.378087
f 1798 1799 1800
o fragment_15
v 0.281997 -0.728061 0.154332
v 0.178142 -0.682491 0.410194
v 0.120864 -0.597555 0.459882
v 0.038656 -0.382073 0.388136
v 0.041129 -0.323355 0.290617
v 0.144984 -0.368925 0.034755
v 0.202262 -0.453862 -0.014934
v 0.28447 -0.669343 0.056813
f 1801 1802 1803 1804 1805 1806 1807 1808
v 0.632267 -0.499711 0.167771
v 0.550059 -0.28423 0.096025
v 0.492781 -0.199293 0.145714
v 0.388926 -0.153724 0.401575
v 0.386453 -0.212441 0.499095
v 0.468661 -0.427923 0.570841
v 0.525939 -0.512859 0.521153
v 0.629794 -0.558429 0.265291
f 1809 1810 1811 1812 1813 1814 1815 1816
v 0.381432 -0.707244 0.10292
v 0.59011 -0.605464 0.169495
v 0.629794 -0.558429 0.265291
v 0.525939 -0.512859 0.521153
v 0.426504 -0.533676 0.572565
v 0.217826 -0.635455 0.50599
v 0.178142 -0.682491 0.410194
v 0.281997 -0.728061 0.154332
f 1817 1818 1819 1820 1821 1822 1823 1824
v 0.144984 -0.368925 0.034755
v 0.041129 -0.323355 0.290617
v 0.080813 -0.27632 0.386412
v 0.289491 -0.174541 0.452988
v 0.388926 -0.153724 0.401575
v 0.492781 -0.199293 0.145714
v 0.453097 -0.246329 0.049918
v 0.244419 -0.348108 -0.016657
f 1825 1826 1827 1828 1829 1830 1831 1832
v 0.28447 -0.669343 0.056813
v 0.202262 -0.453862 -0.014934
v 0.244419 -0.348108 -0.016657
v 0.453097 -0.246329 0.049918
v 0.550059 -0.28423 0.096025
v 0.632267 -0.499711 0.167771
v 0.59011 -0.605464 0.169495
v 0.381432 -0.707244 0.10292
f 1833 1834 1835 1836 1837 1838 1839 1840
v 0.217826 -0.635455 0.50599
v 0.426504 -0.533676 0.572565
v 0.468661 -0.427923 0.570841
v 0.386453 -0.212441 0.499095
v 0.289491 -0.174541 0.452988
v 0.080813 -0.27632 0.386412
v 0.038656 -0.382073 0.388136
v 0.120864 -0.597555 0.459882
f 1841 1842 1843 1844 1845 1846 1847 1848
v 0.354029 -0.635416 0.079004
v 0.562707 -0.533637 0.14558
v 0.560234 -0.592355 0.243099
v 0.351556 -0.694134 0.176524
f 1849 1850 1851 1852
v 0.247702 -0.648564 0.432385
v 0.45638 -0.546785 0.498961
v 0.399101 -0.461849 0.548649
v 0.190423 -0.563628 0.482074
f 1853 1854 1855 1856
v 0.214543 -0.334999 0.056947
v 0.423221 -0.23322 0.123522
v 0.4805 -0.318156 0.073833
v 0.271822 -0.419935 0.007258
f 1857 1858 1859 1860
v 0.108215 -0.348147 0.410328
v 0.316893 -0.246368 0.476903
v 0.319367 -0.18765 0.379384
v 0.110689 -0.289429 0.312808
f 1861 1862 1863 1864
v 0.254594 -0.656234 0.130417
v 0.172386 -0.440752 0.05867
v 0.271822 -0.419935 0.007258
v 0.354029 -0.635416 0.079004
f 1865 1866 1867 1868
v 0.562707 -0.533637 0.14558
v 0.4805 -0.318156 0.073833
v 0.520183 -0.271121 0.169629
v 0.602391 -0.486602 0.241375
f 1869 1870 1871 1872
v 0.190423 -0.563628 0.482074
v 0.108215 -0.348147 0.410328
v 0.068532 -0.395182 0.314532
v 0.15074 -0.610664 0.386278
f 1873 1874 1875 1876
v 0.498536 -0.441032 0.497237
v 0.416329 -0.225551 0.425491
v 0.316893 -0.246368 0.476903
v 0.399101 -0.461849 0.548649
f 1877 1878 1879 1880
v 0.351556 -0.694134 0.176524
v 0.247702 -0.648564 0.432385
v 0.15074 -0.610664 0.386278
v 0.254594 -0.656234 0.130417
f 1881 1882 1883 1884
v 0.172386 -0.440752 0.05867
v 0.068532 -0.395182 0.314532
v 0.110689 -0.289429 0.312808
v 0.214543 -0.334999 0.056947
f 1885 1886 1887 1888
v 0.602391 -0.486602 0.241375
v 0.498536 -0.441032 0.497237
v 0.45638 -0.546785 0.498961
v 0.560234 -0.592355 0.243099
f 1889 1890 1891 1892
v 0.423221 -0.23322 0.123522
v 0.319367 -0.18765 0.379384
v 0.416329 -0.225551 0.425491
v 0.520183 -0.271121 0.169629
f 1893 1894 1895 1896
v 0.354029 -0.635416 0.079004
v 0.351556 -0.694134 0.176524
v 0.254594 -0.656234 0.130417
f 1897 1898 1899
v 0.15074 -0.610664 0.386278
v 0.247702 -0.648564 0.432385
v 0.190423 -0.563628 0.482074
f 1900 1901 1902
v 0.172386 -0.440752 0.05867
v 0.214543 -0.334999 0.056947
v 0.271822 -0.419935 0.007258
f 1903 1904 1905
v 0.108215 -0.348147 0.410328
v 0.110689 -0.289429 0.312808
v 0.068532 -0.395182 0.314532
f 1906 1907 1908
v 0.602391 -0.486602 0.241375
v 0.560234 -0.592355 0.243099
v 0.562707 -0.533637 0.14558
f 1909 1910 1911
v 0.399101 -0.461849 0.548649
v 0.45638 -0.546785 0.498961
v 0.498536 -0.441032 0.497237
f 1912 1913 1914
v 0.4805 -0.318156 0.073833
v 0.423221 -0.23322 0.123522
v 0.520183 -0.271121 0.169629
f 1915 1916 1917
v 0.416329 -0.225551 0.425491
v 0.319367 -0.18765 0.379384
v 0.316893 -0.246368 0.476903
f 1918 1919 1920
o fragment_16
v -0.083713 0.217017 -0.658571
v -0.074357 0.131316 -0.470348
v -0.051777 0.163364 -0.380974
v 0.028227 0.412563 -0.271487
v 0.044569 0.501746 -0.307596
v 0.035212 0.587448 -0.49582
v 0.012633 0.555399 -0.585193
v -0.067371 0.3062 -0.69468
f 1921 1922 1923 1924 1925 1926 1927 1928
v 0.355157 0.200852 -0.763651
v 0.435162 0.450051 -0.654164
v 0.457741 0.482099 -0.56479
v 0.467098 0.396398 -0.376567
v 0.450756 0.307215 -0.340458
v 0.370752 0.058016 -0.449945
v 0.348172 0.025967 -0.539318
v 0.338816 0.111669 -0.727542
f 1929 1930 1931 1932 1933 1934 1935 1936
v -0.020697 0.229095 -0.732108
v 0.269562 0.156725 -0.779488
v 0.338816 0.111669 -0.727542
v 0.348172 0.025967 -0.539318
v 0.285156 0.01389 -0.465782
v -0.005103 0.086259 -0.418402
v -0.074357 0.131316 -0.470348
v -0.083713 0.217017 -0.658571
f 1937 1938 1939 1940 1941 1942 1943 1944
v 0.035212 0.587448 -0.49582
v 0.044569 0.501746 -0.307596
v 0.113823 0.45669 -0.25565
v 0.404081 0.38432 -0.30303
v 0.467098 0.396398 -0.376567
v 0.457741 0.482099 -0.56479
v 0.388487 0.527156 -0.616736
v 0.098228 0.599526 -0.569356
f 1945 1946 1947 1948 1949 1950 1951 1952
v -0.067371 0.3062 -0.69468
v 0.012633 0.555399 -0.585193
v 0.098228 0.599526 -0.569356
v 0.388487 0.527156 -0.616736
v 0.435162 0.450051 -0.654164
v 0.355157 0.200852 -0.763651
v 0.269562 0.156725 -0.779488
v -0.020697 0.229095 -0.732108
f 1953 1954 1955 1956 1957 1958 1959 1960
v -0.005103 0.086259 -0.418402
v 0.285156 0.01389 -0.465782
v 0.370752 0.058016 -0.449945
v 0.450756 0.307215 -0.340458
v 0.404081 0.38432 -0.30303
v 0.113823 0.45669 -0.25565
v 0.028227 0.412563 -0.271487
v -0.051777 0.163364 -0.380974
f 1961 1962 1963 1964 1965 1966 1967 1968
v -0.001237 0.289711 -0.705476
v 0.289022 0.217341 -0.752856
v 0.272681 0.128158 -0.716747
v -0.017578 0.200528 -0.669367
f 1969 1970 1971 1972
v -0.008222 0.114826 -0.481143
v 0.282037 0.042457 -0.528523
v 0.304617 0.074505 -0.43915
v 0.014358 0.146875 -0.39177
f 1973 1974 1975 1976
v 0.101347 0.570958 -0.506615
v 0.391606 0.498589 -0.553995
v 0.369027 0.46654 -0.643368
v 0.078768 0.53891 -0.595988
f 1977 1978 1979 1980
v 0.094362 0.396074 -0.282282
v 0.384621 0.323704 -0.329662
v 0.400963 0.412887 -0.365771
v 0.110704 0.485257 -0.318391
f 1981 1982 1983 1984
v -0.064253 0.277633 -0.631939
v 0.015752 0.526832 -0.522452
v 0.078768 0.53891 -0.595988
v -0.001237 0.289711 -0.705476
f 1985 1986 1987 1988
v 0.289022 0.217341 -0.752856
v 0.369027 0.46654 -0.643368
v 0.43828 0.421484 -0.591423
v 0.358276 0.172285 -0.70091
f 1989 1990 1991 1992
v 0.014358 0.146875 -0.39177
v 0.094362 0.396074 -0.282282
v 0.025108 0.44113 -0.334228
v -0.054896 0.191932 -0.443716
f 1993 1994 1995 1996
v 0.367633 0.086583 -0.512686
v 0.447637 0.335782 -0.403199
v 0.384621 0.323704 -0.329662
v 0.304617 0.074505 -0.43915
f 1997 1998 1999 2000
v -0.017578 0.200528 -0.669367
v -0.008222 0.114826 -0.481143
v -0.054896 0.191932 -0.443716
v -0.064253 0.277633 -0.631939
f 2001 2002 2003 2004
v 0.015752 0.526832 -0.522452
v 0.025108 0.44113 -0.334228
v 0.110704 0.485257 -0.318391
v 0.101347 0.570958 -0.506615
f 2005 2006 2007 2008
v 0.358276 0.172285 -0.70091
v 0.367633 0.086583 -0.512686
v 0.282037 0.042457 -0.528523
v 0.272681 0.128158 -0.716747
f 2009 2010 2011 2012
v 0.391606 0.498589 -0.553995
v 0.400963 0.412887 -0.365771
v 0.447637 0.335782 -0.403199
v 0.43828 0.421484 -0.591423
f 2013 2014 2015 2016
v -0.001237 0.289711 -0.705476
v -0.017578 0.200528 -0.669367
v -0.064253 0.277633 -0.631939
f 2017 2018 2019
v -0.054896 0.191932 -0.443716
v -0.008222 0.114826 -0.481143
v 0.014358 0.146875 -0.39177
f 2020 2021 2022
v 0.015752 0.526832 -0.522452
v 0.101347 0.570958 -0.506615
v 0.078768 0.53891 -0.595988
f 2023 2024 2025
v 0.094362 0.396074 -0.282282
v 0.110704 0.485257 -0.318391
v 0.025108 0.44113 -0.334228
f 2026 2027 2028
v 0.358276 0.172285 -0.70091
v 0.272681 0.128158 -0.716747
v 0.289022 0.217341 -0.752856
f 2029 2030 2031
v 0.304617 0.074505 -0.43915
v 0.282037 0.042457 -0.528523
v 0.367633 0.086583 -0.512686
f 2032 2033 2034
v 0.369027 0.46654 -0.643368
v 0.391606 0.498589 -0.553995
v 0.43828 0.421484 -0.591423
f 2035 2036 2037
v 0.447637 0.335782 -0.403199
v 0.400963 0.412887 -0.365771
v 0.384621 0.323704 -0.329662
f 2038 2039 2040
o fragment_17
v -0.472577 -0.382751 -0.51473
v -0.392442 -0.326444 -0.358933
v -0.389153 -0.251581 -0.315225
v -0.481379 -0.030712 -0.347612
v -0.531514 0.006613 -0.40777
v -0.611649 -0.049694 -0.563568
v -0.614938 -0.124557 -0.607275
v -0.522711 -0.345426 -0.574888
f 2041 2042 2043 2044 2045 2046 2047 2048
v -0.132036 -0.218488 -0.82171
v -0.224262 0.002381 -0.854097
v -0.220973 0.077244 -0.81039
v -0.140838 0.133551 -0.654592
v -0.090704 0.096226 -0.594434
v 0.001523 -0.124643 -0.562047
v -0.001766 -0.199506 -0.605754
v -0.081901 -0.255813 -0.761552
f 2049 2050 2051 2052 2053 2054 2055 2056
v -0.449282 -0.385272 -0.598256
v -0.15862 -0.29083 -0.781892
v -0.081901 -0.255813 -0.761552
v -0.001766 -0.199506 -0.605754
v -0.025061 -0.196985 -0.522229
v -0.315724 -0.291427 -0.338593
v -0.392442 -0.326444 -0.358933
v -0.472577 -0.382751 -0.51473
f 2057 2058 2059 2060 2061 2062 2063 2064
v -0.611649 -0.049694 -0.563568
v -0.531514 0.006613 -0.40777
v -0.454795 0.04163 -0.387431
v -0.164133 0.136072 -0.571066
v -0.140838 0.133551 -0.654592
v -0.220973 0.077244 -0.81039
v -0.297691 0.042227 -0.830729
v -0.588354 -0.052215 -0.647094
f 2065 2066 2067 2068 2069 2070 2071 2072
v -0.522711 -0.345426 -0.574888
v -0.614938 -0.124557 -0.607275
v -0.588354 -0.052215 -0.647094
v -0.297691 0.042227 -0.830729
v -0.224262 0.002381 -0.854097
v -0.132036 -0.218488 -0.82171
v -0.15862 -0.29083 -0.781892
v -0.449282 -0.385272 -0.598256
f 2073 2074 2075 2076 2077 2078 2079 2080
v -0.315724 -0.291427 -0.338593
v -0.025061 -0.196985 -0.522229
v 0.001523 -0.124643 -0.562047
v -0.090704 0.096226 -0.594434
v -0.164133 0.136072 -0.571066
v -0.454795 0.04163 -0.387431
v -0.481379 -0.030712 -0.347612
v -0.389153 -0.251581 -0.315225
f 2081 2082 2083 2084 2085 2086 2087 2088
v -0.472705 -0.329178 -0.606481
v -0.182042 -0.234736 -0.790117
v -0.131908 -0.272061 -0.729959
v -0.422571 -0.366503 -0.546323
f 2089 2090 2091 2092
v -0.342436 -0.310196 -0.390526
v -0.051773 -0.215754 -0.574161
v -0.048484 -0.140891 -0.530454
v -0.339146 -0.235333 -0.346818
f 2093 2094 2095 2096
v -0.561642 -0.033446 -0.595161
v -0.27098 0.060996 -0.778797
v -0.274269 -0.013867 -0.822504
v -0.564931 -0.108309 -0.638869
f 2097 2098 2099 2100
v -0.431373 -0.014464 -0.379206
v -0.14071 0.079978 -0.562841
v -0.190844 0.117303 -0.622999
v -0.481507 0.022861 -0.439364
f 2101 2102 2103 2104
v -0.496 -0.326657 -0.522956
v -0.588226 -0.105788 -0.555343
v -0.564931 -0.108309 -0.638869
v -0.472705 -0.329178 -0.606481
f 2105 2106 2107 2108
v -0.182042 -0.234736 -0.790117
v -0.274269 -0.013867 -0.822504
v -0.19755 0.02115 -0.802165
v -0.105324 -0.199719 -0.769778
f 2109 2110 2111 2112
v -0.339146 -0.235333 -0.346818
v -0.431373 -0.014464 -0.379206
v -0.508091 -0.049481 -0.399545
v -0.415865 -0.27035 -0.367158
f 2113 2114 2115 2116
v -0.025189 -0.143412 -0.61398
v -0.117415 0.077457 -0.646367
v -0.14071 0.079978 -0.562841
v -0.048484 -0.140891 -0.530454
f 2117 2118 2119 2120
v -0.422571 -0.366503 -0.546323
v -0.342436 -0.310196 -0.390526
v -0.415865 -0.27035 -0.367158
v -0.496 -0.326657 -0.522956
f 2121 2122 2123 2124
v -0.588226 -0.105788 -0.555343
v -0.508091 -0.049481 -0.399545
v -0.481507 0.022861 -0.439364
v -0.561642 -0.033446 -0.595161
f 2125 2126 2127 2128
v -0.105324 -0.199719 -0.769778
v -0.025189 -0.143412 -0.61398
v -0.051773 -0.215754 -0.574161
v -0.131908 -0.272061 -0.729959
f 2129 2130 2131 2132
v -0.27098 0.060996 -0.778797
v -0.190844 0.117303 -0.622999
v -0.117415 0.077457 -0.646367
v -0.19755 0.02115 -0.802165
f 2133 2134 2135 2136
v -0.472705 -0.329178 -0.606481
v -0.422571 -0.366503 -0.546323
v -0.496 -0.326657 -0.522956
f 2137 2138 2139
v -0.415865 -0.27035 -0.367158
v -0.342436 -0.310196 -0.390526
v -0.339146 -0.235333 -0.346818
f 2140 2141 2142
v -0.588226 -0.105788 -0.555343
v -0.561642 -0.033446 -0.595161
v -0.564931 -0.108309 -0.638869
f 2143 2144 2145
v -0.431373 -0.014464 -0.379206
v -0.481507 0.022861 -0.439364
v -0.508091 -0.049481 -0.399545
f 2146 2147 2148
v -0.105324 -0.199719 -0.769778
v -0.131908 -0.272061 -0.729959
v -0.182042 -0.234736 -0.790117
f 2149 2150 2151
v -0.048484 -0.140891 -0.530454
v -0.051773 -0.215754 -0.574161
v -0.025189 -0.143412 -0.61398
f 2152 2153 2154
v -0.274269 -0.013867 -0.822504
v -0.27098 0.060996 -0.778797
v -0.19755 0.02115 -0.802165
f 2155 2156 2157
v -0.117415 0.077457 -0.646367
v -0.190844 0.117303 -0.622999
v -0.14071 0.079978 -0.562841
f 2158 2159 2160
